<svg xmlns="http://www.w3.org/2000/svg" xmlns:xlink="http://www.w3.org/1999/xlink" viewBox="75.95 218.52 350.05 367.68">
	<path d="M169.402 221.543C175.794 218.306 185.229 217.591 191.991 219.795C200.429 222.545 208.431 228.27 212.506 236.321C217.62 246.425 222.549 267.215 218.825 278.277C215.065 289.449 209.195 301.242 200.542 309.444C195.195 311.094 190.555 311.498 185.414 308.788C176.624 304.154 161.187 286.067 155.832 277.399C153.887 274.252 152.008 270.451 150.954 266.91C147.902 256.654 146.062 247.088 151.405 237.088C155.078 230.212 161.322 223.925 168.893 221.692L169.402 221.543Z"/>
	<path d="M200.542 309.444C203.239 308.838 209.265 300.183 210.902 297.605C214.267 292.305 216.608 286.768 218.836 280.931C219.531 279.11 220.36 277.407 220.779 275.496C220.853 275.16 220.891 274.632 221.226 274.49C224.273 273.201 235.938 278.272 238.983 279.843C246.842 283.899 265.723 294.161 268.394 302.767C268.575 303.349 268.675 303.926 268.719 304.533L268.516 304.902C267.935 304.766 267.2 304.12 266.709 304.098C266.746 306.114 270.53 308.844 271.534 310.795C272.75 313.159 273.145 316.081 273.132 318.714C273.122 320.918 272.808 323.184 272.292 325.325C271.565 328.339 270.155 331.099 269.24 334.045C267.327 340.199 265.808 346.507 263.792 352.633C262.789 355.679 261.315 358.705 260.906 361.905C260.37 366.102 262.885 373.659 263.722 378.112C264.332 381.352 264.512 384.666 264.98 387.929C265.927 394.527 267.096 401.564 268.651 408.05C269.235 410.487 270.29 412.848 271.105 415.217C271.909 417.551 272.43 419.972 273.217 422.31C274.072 424.853 275.169 427.313 275.964 429.876Q281.216 447.349 287.176 464.594C288.725 469.212 289.847 473.843 291.785 478.342C290.309 479.105 286.354 478.391 284.701 478.007C281.193 479.42 270.9 476.071 266.439 475.864C260.606 475.593 255.421 477.197 249.712 477.69C247.27 477.901 244.774 477.283 242.318 477.31C238.072 477.357 228.46 479.13 225.296 481.826C225.083 482.007 224.855 482.201 224.633 482.37C224.614 482.384 224.591 482.39 224.569 482.4C225.049 484.419 226.489 489.828 225.304 491.672C225.27 491.725 225.22 491.767 225.179 491.815L225.516 492.578C224.958 493.681 222.757 494.439 221.643 494.842L221.336 494.705C220.7 495.622 219.463 496.508 218.471 496.983C217.373 496.993 216.617 496.38 215.592 495.998C215.277 496.39 215.399 496.701 215.416 497.187C214.557 497.83 210.841 497.394 209.599 497.379L208.996 496.567C207.567 496.723 206.538 496.721 205.131 496.451C204.441 496.319 203.759 496.077 203.166 496.475L203.643 497.432L203.403 497.627C202.815 497.556 202.096 497.291 201.538 497.281C199.061 497.237 195.779 500.824 193.31 500.246C193.079 499.578 193.426 499.137 193.679 498.492L193.548 498.226C192.543 498.929 191.832 499.89 190.564 500.041C189.734 500.17 188.668 499.608 187.979 499.162Q187.731 499.003 187.523 498.795Q187.315 498.587 187.155 498.34Q186.995 498.092 186.892 497.817Q186.789 497.541 186.746 497.25C186.399 494.861 188.062 492.978 189.325 491.155L189.204 490.978C188.741 491.341 188.286 491.754 187.695 491.878C187.185 491.985 186.764 491.644 186.343 491.367C186.274 491.322 186.207 491.275 186.14 491.229C186.092 493.829 186.403 497.55 185.657 499.997C185.427 500.752 185.029 501.124 184.357 501.486C184.098 501.472 183.848 501.467 183.607 501.357C182.175 500.7 181.76 499.195 181.37 497.822Q181.473 497.309 181.553 496.791L181.608 496.422C181.979 494.028 179.543 491.953 180.152 489.06C180.657 486.664 182.571 484.763 183.336 482.445C183.359 482.376 183.379 482.306 183.401 482.236C183.388 481.989 183.378 481.682 183.277 481.452C182.702 480.15 180.379 479.618 179.113 479.143C177.491 480.203 175.25 480.612 173.424 481.262C170.036 482.467 163.618 485.309 161.532 488.387C161.414 489.054 161.363 489.082 161.688 489.665C162.229 489.871 163.059 490.031 163.314 490.541C160.387 491.01 149.037 487.573 146.519 485.68C146.287 485.506 146.135 485.312 145.961 485.084L146.01 484.956C145.459 483.801 140.344 479.461 139.067 477.671C139.662 474.501 140.935 471.418 141.807 468.309C142.567 465.599 143.01 462.81 143.709 460.085C144.372 457.501 145.307 454.994 146.001 452.419C148.012 444.955 149.735 437.392 151.738 429.924C154.329 420.268 157.056 410.663 159.456 400.95C158.818 399.44 158.455 397.85 157.837 396.342L145.953 367.993L138.108 349.347C137.395 347.639 136.301 345.952 135.726 344.211C135.453 343.383 135.539 342.467 135.236 341.672C134.637 340.099 133.733 338.596 133.067 337.035C132.246 335.109 131.678 333.08 130.951 331.118C129.658 327.631 127.585 324.028 127.25 320.289C126.922 316.629 128.575 313.609 130.848 310.885L130.973 310.737C130.647 310.269 130.194 309.69 130.029 309.139C129.804 308.381 130.153 307.498 130.482 306.829C132.564 302.598 139.125 296.674 143.157 294.368C144.58 293.553 146.259 293.077 147.761 292.407C152.229 290.415 156.782 288.179 161.435 286.67C162.366 287.199 162.474 287.886 163.055 288.68C164.478 290.626 166.435 292.468 168.052 294.271C174.247 301.175 182.127 310.199 191.773 311.617C195.389 312.148 197.599 311.605 200.542 309.444ZM166.155 338.247C168.05 344.744 171.366 350.803 173.565 357.179C176.17 364.732 178.531 372.416 180.993 380.016C182.408 384.384 183.166 387.53 184.986 391.984C185.754 397.258 188.067 401.54 189.59 406.527L198.655 435.189C199.367 437.381 200.332 439.486 201.04 441.678C201.633 443.514 201.923 445.444 202.528 447.267C203.221 449.355 204.2 451.346 204.873 453.441C205.738 456.129 204.906 458.437 205.277 459.546C205.426 459.994 205.443 460.086 205.318 460.532C204.404 460.736 202.999 459.993 202.071 459.745C201.515 461.564 205.545 469.796 206.392 472.11C208.697 469.955 210.559 461.924 211.51 458.739C211.25 459.033 210.986 459.324 210.697 459.589C210.127 460.112 209.205 460.853 208.421 460.818C207.436 459.297 208.985 456.467 209.136 454.662L208.689 453.746C208.415 453.184 208.059 452.558 207.945 451.937C207.6 450.06 207.883 447.568 207.912 445.652C207.974 441.588 208.837 422.406 207.528 420.2C206.848 420.122 206.844 420.149 206.259 420.514C205.736 421.345 205.564 422.189 205.475 423.155C205.245 425.664 205.546 428.153 205.52 430.66C205.451 437.437 205.809 444.207 205.539 450.996C204.428 450.07 204.006 448.655 203.539 447.33C202.693 444.925 202.311 442.411 201.562 439.984L193.419 414.177C190.653 405.645 187.906 397.131 185.311 388.553C184.551 386.039 183.389 383.678 182.875 381.089C182.191 378.725 181.493 376.368 180.654 374.054C179.465 370.709 178.678 367.295 177.589 363.932C176.612 360.917 174.729 357.444 174.396 354.329Q173.45 352.221 172.459 350.134C171.416 348.244 170.854 346.135 170.041 344.143C168.228 339.703 166.296 335.314 164.443 330.893C162.878 327.157 160.165 318.817 157.775 316.022L157.654 316.177C158.088 319.661 160.192 323.183 161.522 326.388C162.3 328.262 162.819 330.244 163.534 332.144C164.308 334.2 165.323 336.203 166.155 338.247ZM224.49 481.311C224.43 481.271 224.369 481.233 224.311 481.192C222.495 479.915 221.907 477.315 220.622 475.565C219.355 473.84 212.106 466.581 210.309 466.705C210.777 467.89 213.801 469.587 214.835 470.567C216.729 472.364 218.699 474.245 220.201 476.387C221.472 478.2 222.518 480.845 224.135 482.311L224.569 482.4C224.591 482.39 224.614 482.384 224.633 482.37C224.855 482.201 225.083 482.007 225.296 481.826C228.46 479.13 238.072 477.357 242.318 477.31C244.774 477.283 247.27 477.901 249.712 477.69C255.421 477.197 260.606 475.593 266.439 475.864C270.9 476.071 281.193 479.42 284.701 478.007C279.049 476.864 273.391 475.579 267.616 475.342C264.474 475.213 261.159 474.945 258.025 475.166C252.444 475.561 249.978 477.182 243.843 476.303C242.955 476.176 241.865 476.166 241.078 475.71C238.512 468.382 237.085 460.249 233.574 453.318C233.47 453.113 233.375 452.903 233.276 452.695C230.795 459.764 228.649 466.88 226.323 474.004C225.636 476.11 225.616 479.624 224.49 481.311ZM239.413 312.283L239.304 312.51C238.717 313.704 237.691 314.819 237.264 316.051C236.64 317.85 236.918 319.795 236.199 321.656C233.811 327 233.529 332.487 232.379 338.093C231.664 341.58 230.542 344.991 229.903 348.491C229.209 352.29 228.953 355.836 227.653 359.527C227.57 359.951 227.523 360.348 227.325 360.736C225.899 369.467 223.841 377.946 221.963 386.572C221.266 389.771 221.16 393.02 220.397 396.241C220.035 398.105 218.324 406.08 217.51 407.355C217.294 409.838 217.157 412.352 216.663 414.799C215.982 418.174 214.837 421.451 214.103 424.816C213.554 427.336 213.406 429.931 212.884 432.456C211.746 437.954 210.345 443.262 209.517 448.85C210.775 447.268 211.265 444.374 211.744 442.413C212.684 438.562 213.272 434.663 214.098 430.791C214.918 426.95 215.976 423.15 216.726 419.295C217.328 416.201 217.721 413.073 218.391 409.99L229.725 356.92C230.669 352.494 231.975 348.139 232.897 343.713C233.441 341.099 233.499 338.42 234.101 335.804C234.711 333.153 235.869 330.645 236.539 328.002C237.203 325.381 237.302 322.651 238.133 320.068C239.002 317.365 242.468 309.702 242.633 307.749C241.021 308.189 240.211 310.937 239.413 312.283ZM189.537 440.723L188.169 442.088C188.171 442.218 192.017 453.969 192.409 455.811C191.511 456.423 190.512 455.764 189.513 456.285C190.274 457.983 194.23 463.585 195.807 464.401C195.878 464.437 195.957 464.454 196.032 464.481C196.509 465.218 197 466.249 197.81 466.635C198.188 466.087 198.257 456.447 198.04 455.31C197.966 454.92 197.971 454.963 197.868 454.65C196.813 454.62 196.206 454.924 195.202 454.466C193.574 452.394 192.549 441.618 189.537 440.723ZM222.758 442.498C221.14 445.269 220.641 453.351 218.379 455.15C217.396 455.12 217.093 454.36 216.14 454.561C215.661 456.083 216.189 464.403 216.878 465.782C217.036 466.099 217.085 466.116 217.306 466.328C218.089 466.007 218.6 464.67 219.021 463.94C221.45 462.117 223.774 458.886 225.333 456.265C224.55 456.571 223.176 457.149 222.351 456.765C221.962 456.583 221.951 456.299 221.784 455.926C221.775 452.483 225.977 445.553 225.246 443.055C224.445 442.658 223.633 442.603 222.758 442.498ZM184.986 391.984C183.166 387.53 182.408 384.384 180.993 380.016C178.531 372.416 176.17 364.732 173.565 357.179C171.366 350.803 168.05 344.744 166.155 338.247L165.107 338.284C165.044 338.46 164.925 338.626 164.917 338.813C164.885 339.551 166.342 342.175 166.682 342.993C168.21 346.671 169.084 350.539 170.793 354.163C171.599 355.874 173.168 358.062 173.551 359.83C173.874 361.322 173.486 363.151 174.023 364.554C174.645 366.182 176.042 367.67 176.485 369.352C176.88 370.852 176.652 372.594 177.16 374.056C177.874 376.107 179.259 377.85 179.892 379.983C180.419 381.763 180.222 383.719 180.806 385.44C181.59 387.748 182.565 389.967 183.885 392.022C184.34 392.148 184.537 392.126 184.986 391.984ZM179.113 479.143C180.379 479.618 182.702 480.15 183.277 481.452C183.378 481.682 183.388 481.989 183.401 482.236C183.974 482.145 184.314 481.96 184.687 481.492C185.403 480.594 185.936 479.463 186.616 478.516C187.677 477.04 188.906 475.691 189.985 474.231C190.29 473.819 190.333 473.493 190.226 473.01C190.109 472.48 187.296 467.177 186.966 466.954C186.764 467.892 186.759 468.883 186.347 469.76C186.097 470.292 181.268 477.912 180.851 478.427C180.299 479.109 179.912 479.082 179.113 479.143ZM217.51 407.355C218.324 406.08 220.035 398.105 220.397 396.241L220.247 395.885C220.062 395.438 219.942 394.992 219.821 394.525L219.48 394.6C218.823 396.033 216.171 404.962 216.567 406.085C216.765 406.648 217.291 406.87 217.51 407.355ZM236.199 321.656C236.918 319.795 236.64 317.85 237.264 316.051C237.691 314.819 238.717 313.704 239.304 312.51L239.413 312.283L238.74 311.991C236.853 313.791 235.629 316.561 235.577 319.17C235.562 319.921 235.745 320.447 236.014 321.138C236.055 321.245 236.089 321.355 236.128 321.462L236.199 321.656ZM180.654 374.054C181.493 376.368 182.191 378.725 182.875 381.089C182.91 381.045 182.935 380.99 182.98 380.955C183.332 380.687 183.584 380.606 183.883 380.24C183.472 378.691 182.581 374.294 181.268 373.465L180.654 374.054ZM172.459 350.134Q173.45 352.221 174.396 354.329C174.924 354.627 175.106 355.19 175.4 355.712L175.633 355.675C175.893 354.414 174.431 351.369 173.778 350.247C173.467 349.712 173.424 349.457 172.832 349.298L172.459 350.134ZM227.325 360.736C227.523 360.348 227.57 359.951 227.653 359.527C227.635 359.45 227.616 359.373 227.599 359.296C227.407 358.381 227.486 357.739 227.695 356.838C227.132 356.996 227.063 357.229 226.766 357.724C226.221 358.636 226.312 359.443 226.498 360.447L226.748 360.578L227.077 360.266L227.325 360.736Z"/>
	<path d="M227.325 360.736L227.077 360.266L226.748 360.578L226.498 360.447C226.312 359.443 226.221 358.636 226.766 357.724C227.063 357.229 227.132 356.996 227.695 356.838C227.486 357.739 227.407 358.381 227.599 359.296C227.616 359.373 227.635 359.45 227.653 359.527C227.57 359.951 227.523 360.348 227.325 360.736Z"/>
	<path d="M172.459 350.134L172.832 349.298C173.424 349.457 173.467 349.712 173.778 350.247C174.431 351.369 175.893 354.414 175.633 355.675L175.4 355.712C175.106 355.19 174.924 354.627 174.396 354.329Q173.45 352.221 172.459 350.134Z"/>
	<path fill="#F5D2D0" d="M221.336 494.705C221.812 493.653 221.859 491.142 222.461 490.406C222.686 490.958 222.892 491.358 223.25 491.834C224.133 492.183 224.289 492.05 225.179 491.815L225.516 492.578C224.958 493.681 222.757 494.439 221.643 494.842L221.336 494.705Z"/>
	<path d="M180.654 374.054L181.268 373.465C182.581 374.294 183.472 378.691 183.883 380.24C183.584 380.606 183.332 380.687 182.98 380.955C182.935 380.99 182.91 381.045 182.875 381.089C182.191 378.725 181.493 376.368 180.654 374.054Z"/>
	<path d="M236.199 321.656L236.128 321.462C236.089 321.355 236.055 321.245 236.014 321.138C235.745 320.447 235.562 319.921 235.577 319.17C235.629 316.561 236.853 313.791 238.74 311.991L239.413 312.283L239.304 312.51C238.717 313.704 237.691 314.819 237.264 316.051C236.64 317.85 236.918 319.795 236.199 321.656Z"/>
	<path d="M217.51 407.355C217.291 406.87 216.765 406.648 216.567 406.085C216.171 404.962 218.823 396.033 219.48 394.6L219.821 394.525C219.942 394.992 220.062 395.438 220.247 395.885L220.397 396.241C220.035 398.105 218.324 406.08 217.51 407.355Z"/>
	<path d="M184.986 391.984C184.537 392.126 184.34 392.148 183.885 392.022C182.565 389.967 181.59 387.748 180.806 385.44C180.222 383.719 180.419 381.763 179.892 379.983C179.259 377.85 177.874 376.107 177.16 374.056C176.652 372.594 176.88 370.852 176.485 369.352C176.042 367.67 174.645 366.182 174.023 364.554C173.486 363.151 173.874 361.322 173.551 359.83C173.168 358.062 171.599 355.874 170.793 354.163C169.084 350.539 168.21 346.671 166.682 342.993C166.342 342.175 164.885 339.551 164.917 338.813C164.925 338.626 165.044 338.46 165.107 338.284L166.155 338.247C168.05 344.744 171.366 350.803 173.565 357.179C176.17 364.732 178.531 372.416 180.993 380.016C182.408 384.384 183.166 387.53 184.986 391.984Z"/>
	<path fill="#FE443B" d="M143.901 526.318C140.574 531.415 124.048 540.449 118.102 542.779C110.826 545.629 102.213 545.623 95.0339 542.419C86.6827 538.692 81.6361 530.607 78.4428 522.396C75.3915 514.55 75.2928 504.052 77.3366 495.898C78.0531 493.04 79.2861 490.201 80.4778 487.51C85.9 475.263 99.2048 468.296 111.212 463.774C113.718 462.83 116.445 462.2 119.102 461.856C133.127 460.039 132.886 474.415 142.008 482.185C143.024 483.052 144.383 484.444 145.613 484.951C145.728 484.998 145.845 485.04 145.961 485.084C146.135 485.312 146.287 485.506 146.519 485.68C149.037 487.573 160.387 491.01 163.314 490.541C163.059 490.031 162.229 489.871 161.688 489.665C161.363 489.082 161.414 489.054 161.532 488.387C163.618 485.309 170.036 482.467 173.424 481.262C175.25 480.612 177.491 480.203 179.113 479.143C180.379 479.618 182.702 480.15 183.277 481.452C183.378 481.682 183.388 481.989 183.401 482.236C183.379 482.306 183.359 482.376 183.336 482.445C182.571 484.763 180.657 486.664 180.152 489.06C179.543 491.953 181.979 494.028 181.608 496.422L181.553 496.791Q181.473 497.309 181.37 497.822C181.76 499.195 182.175 500.7 183.607 501.357C183.848 501.467 184.098 501.472 184.357 501.486C185.029 501.124 185.427 500.752 185.657 499.997C186.403 497.55 186.092 493.829 186.14 491.229C186.207 491.275 186.274 491.322 186.343 491.367C186.764 491.644 187.185 491.985 187.695 491.878C188.286 491.754 188.741 491.341 189.204 490.978L189.325 491.155C188.062 492.978 186.399 494.861 186.746 497.25Q186.789 497.541 186.892 497.817Q186.995 498.093 187.155 498.34Q187.315 498.587 187.523 498.795Q187.731 499.003 187.979 499.162C188.668 499.608 189.734 500.17 190.564 500.041C191.832 499.89 192.543 498.929 193.548 498.226L193.679 498.492C193.426 499.137 193.079 499.578 193.31 500.246C195.779 500.824 199.061 497.237 201.538 497.281C202.096 497.291 202.815 497.556 203.403 497.627L203.643 497.432L203.166 496.475C203.759 496.077 204.441 496.319 205.131 496.451C206.538 496.721 207.567 496.723 208.996 496.567L209.599 497.379C210.841 497.394 214.557 497.83 215.416 497.187C215.399 496.701 215.277 496.39 215.592 495.998C216.617 496.38 217.373 496.993 218.471 496.983C219.463 496.508 220.7 495.622 221.336 494.705L221.643 494.842C222.757 494.439 224.958 493.681 225.516 492.578L225.179 491.815C225.22 491.767 225.27 491.725 225.304 491.672C226.489 489.828 225.049 484.419 224.569 482.4C224.591 482.39 224.614 482.384 224.633 482.37C224.855 482.201 225.083 482.007 225.296 481.826C228.46 479.13 238.072 477.357 242.318 477.31C244.774 477.283 247.27 477.901 249.712 477.69C255.421 477.197 260.606 475.593 266.439 475.864C270.9 476.071 281.193 479.42 284.701 478.007C286.354 478.391 290.309 479.105 291.785 478.342C293.506 479.622 298.162 479.623 300.457 479.913C306.109 480.628 311.785 481.469 317.461 481.936C322.216 482.327 326.99 482.384 331.75 482.682C338.834 483.124 345.797 483.732 352.917 483.639C356.363 483.594 359.763 482.754 363.2 482.561C368.063 482.287 372.983 482.353 377.856 482.226C383.051 482.091 388.231 481.788 393.431 481.713C401.371 481.599 409.302 481.747 417.245 481.58C419.778 481.527 422.53 481.778 425.022 481.419C425.396 481.365 425.673 481.237 426 481.057L426 559.788L426 585.499C425.769 585.65 425.572 585.775 425.303 585.848C422.914 586.497 418.983 586.001 416.426 586.002L395.174 586.002L299.013 586.009C294.087 586.009 259.196 586.563 257.238 585.579C256.569 585.909 256.061 585.953 255.33 585.978C240.614 586.469 225.717 586.014 210.984 586.01C206.286 586.009 188.832 586.566 185.922 585.71C185.819 585.674 185.608 585.605 185.498 585.552C184.383 585.012 183.238 583.945 182.202 583.227C179.839 581.591 177.423 580.023 175.033 578.426L157.344 566.609C152.24 563.262 146.804 560.104 142.245 556.015C140.579 554.521 139.204 552.444 138.385 550.369C136.158 544.727 136.862 536.407 140.214 531.32C141.359 529.582 142.904 528.66 143.759 526.656L143.901 526.318ZM257.238 585.579C259.196 586.563 294.087 586.009 299.013 586.009L395.174 586.002L416.426 586.002C418.983 586.001 422.914 586.497 425.303 585.848C425.572 585.775 425.769 585.65 426 585.499L426 559.788C425.618 560.074 425.246 560.275 424.756 560.299C420.564 560.503 416.295 560.034 412.091 560.02C401.661 559.985 391.218 560.139 380.798 559.551C369.794 558.931 358.765 558.13 347.757 557.687C341.381 557.43 334.995 557.456 328.619 557.215C324.364 557.054 320.136 556.361 315.883 556.296C308.043 556.177 300.081 556.966 292.245 557.299C286.549 557.541 280.842 557.333 275.143 557.55C265.351 557.924 255.457 559.146 245.727 560.285C239.924 560.964 227.125 562.986 221.765 562.135C218.714 561.651 215.468 558.922 212.887 557.26C209.438 555.039 194.451 545.021 191.442 544.66L191.918 544.582L191.582 544.955L234.692 571.393C242.248 576.055 250.035 580.378 257.238 585.579Z"/>
</svg>