<?xml version="1.0" encoding="UTF-8"?>
<!--Generator: Apple Native CoreSVG 341-->
<!DOCTYPE svg
PUBLIC "-//W3C//DTD SVG 1.1//EN"
       "http://www.w3.org/Graphics/SVG/1.1/DTD/svg11.dtd">
<svg version="1.1" xmlns="http://www.w3.org/2000/svg" xmlns:xlink="http://www.w3.org/1999/xlink" viewBox="0 0 3300 2200">
 <!--glyph: "", point size: 100.0, font version: "20.0d10e1", template writer version: "138.0.0"-->
 <style>.monochrome-0 {-sfsymbols-motion-group:1;-sfsymbols-layer-tags:-5d1ad6eaa33a53d3 -6933e3caeadba45a lungs}
.monochrome-1 {-sfsymbols-motion-group:1;-sfsymbols-layer-tags:-5d1ad6eaa33a53d3 -6933e3caeadba45a lungs}
.monochrome-2 {-sfsymbols-motion-group:1;-sfsymbols-layer-tags:-5d1ad6eaa33a53d3 -6933e3caeadba45a lungs}
.monochrome-3 {opacity:0.0;-sfsymbols-clear-behind:true;-sfsymbols-motion-group:0;-sfsymbols-layer-tags:-5d1ad6eaa33a53d3 _slash}
.monochrome-4 {-sfsymbols-motion-group:0;-sfsymbols-layer-tags:-5d1ad6eaa33a53d3 _slash}

.multicolor-0:tintColor {-sfsymbols-motion-group:1;-sfsymbols-layer-tags:-5d1ad6eaa33a53d3 -6933e3caeadba45a lungs}
.multicolor-1:tintColor {-sfsymbols-clear-behind:true;-sfsymbols-motion-group:1;-sfsymbols-layer-tags:-5d1ad6eaa33a53d3 -6933e3caeadba45a lungs}
.multicolor-2:tintColor {-sfsymbols-motion-group:1;-sfsymbols-layer-tags:-5d1ad6eaa33a53d3 -6933e3caeadba45a lungs}
.multicolor-3:tintColor {opacity:0.0;-sfsymbols-clear-behind:true;-sfsymbols-motion-group:0;-sfsymbols-layer-tags:-5d1ad6eaa33a53d3 _slash}
.multicolor-4:tintColor {-sfsymbols-motion-group:0;-sfsymbols-layer-tags:-5d1ad6eaa33a53d3 _slash}

.hierarchical-0:secondary {-sfsymbols-motion-group:1;-sfsymbols-layer-tags:-5d1ad6eaa33a53d3 -6933e3caeadba45a lungs}
.hierarchical-1:secondary {-sfsymbols-clear-behind:true;-sfsymbols-motion-group:1;-sfsymbols-layer-tags:-5d1ad6eaa33a53d3 -6933e3caeadba45a lungs}
.hierarchical-2:secondary {-sfsymbols-motion-group:1;-sfsymbols-layer-tags:-5d1ad6eaa33a53d3 -6933e3caeadba45a lungs}
.hierarchical-3:primary {opacity:0.0;-sfsymbols-clear-behind:true;-sfsymbols-motion-group:0;-sfsymbols-layer-tags:-5d1ad6eaa33a53d3 _slash}
.hierarchical-4:primary {-sfsymbols-motion-group:0;-sfsymbols-layer-tags:-5d1ad6eaa33a53d3 _slash}

.SFSymbolsPreviewWireframe {fill:none;opacity:1.0;stroke:black;stroke-width:0.5}
</style>
 <g id="Notes">
  <rect height="2200" id="artboard" style="fill:white;opacity:1" width="3300" x="0" y="0"/>
  <line style="fill:none;stroke:black;opacity:1;stroke-width:0.5;" x1="263" x2="3036" y1="292" y2="292"/>
  <text style="stroke:none;fill:black;font-family:sans-serif;font-size:13;font-weight:bold;" transform="matrix(1 0 0 1 263 322)">Weight/Scale Variations</text>
  <text style="stroke:none;fill:black;font-family:sans-serif;font-size:13;text-anchor:middle;" transform="matrix(1 0 0 1 559.711 322)">Ultralight</text>
  <text style="stroke:none;fill:black;font-family:sans-serif;font-size:13;text-anchor:middle;" transform="matrix(1 0 0 1 856.422 322)">Thin</text>
  <text style="stroke:none;fill:black;font-family:sans-serif;font-size:13;text-anchor:middle;" transform="matrix(1 0 0 1 1153.13 322)">Light</text>
  <text style="stroke:none;fill:black;font-family:sans-serif;font-size:13;text-anchor:middle;" transform="matrix(1 0 0 1 1449.84 322)">Regular</text>
  <text style="stroke:none;fill:black;font-family:sans-serif;font-size:13;text-anchor:middle;" transform="matrix(1 0 0 1 1746.56 322)">Medium</text>
  <text style="stroke:none;fill:black;font-family:sans-serif;font-size:13;text-anchor:middle;" transform="matrix(1 0 0 1 2043.27 322)">Semibold</text>
  <text style="stroke:none;fill:black;font-family:sans-serif;font-size:13;text-anchor:middle;" transform="matrix(1 0 0 1 2339.98 322)">Bold</text>
  <text style="stroke:none;fill:black;font-family:sans-serif;font-size:13;text-anchor:middle;" transform="matrix(1 0 0 1 2636.69 322)">Heavy</text>
  <text style="stroke:none;fill:black;font-family:sans-serif;font-size:13;text-anchor:middle;" transform="matrix(1 0 0 1 2933.4 322)">Black</text>
  <line style="fill:none;stroke:black;opacity:1;stroke-width:0.5;" x1="263" x2="3036" y1="1903" y2="1903"/>
  <g transform="matrix(0.2 0 0 0.2 263 1933)">
   <path d="m46.2402 4.15039c21.7773 0 39.4531-17.627 39.4531-39.4043s-17.6758-39.4043-39.4531-39.4043c-21.7285 0-39.4043 17.627-39.4043 39.4043s17.6758 39.4043 39.4043 39.4043Zm0-7.42188c-17.6758 0-31.9336-14.3066-31.9336-31.9824s14.2578-31.9824 31.9336-31.9824 31.9824 14.3066 31.9824 31.9824-14.3066 31.9824-31.9824 31.9824Zm-17.9688-31.9824c0 2.14844 1.51367 3.61328 3.75977 3.61328h10.498v10.5957c0 2.19727 1.46484 3.71094 3.61328 3.71094 2.24609 0 3.71094-1.51367 3.71094-3.71094v-10.5957h10.5957c2.19727 0 3.71094-1.46484 3.71094-3.61328 0-2.19727-1.51367-3.71094-3.71094-3.71094h-10.5957v-10.5469c0-2.24609-1.46484-3.75977-3.71094-3.75977-2.14844 0-3.61328 1.51367-3.61328 3.75977v10.5469h-10.498c-2.24609 0-3.75977 1.51367-3.75977 3.71094Z"/>
  </g>
  <g transform="matrix(0.2 0 0 0.2 281.506 1933)">
   <path d="m58.5449 14.5508c27.4902 0 49.8047-22.3145 49.8047-49.8047s-22.3145-49.8047-49.8047-49.8047-49.8047 22.3145-49.8047 49.8047 22.3145 49.8047 49.8047 49.8047Zm0-8.30078c-22.9492 0-41.5039-18.5547-41.5039-41.5039s18.5547-41.5039 41.5039-41.5039 41.5039 18.5547 41.5039 41.5039-18.5547 41.5039-41.5039 41.5039Zm-22.6562-41.5039c0 2.39258 1.66016 4.00391 4.15039 4.00391h14.3555v14.4043c0 2.44141 1.66016 4.15039 4.05273 4.15039 2.44141 0 4.15039-1.66016 4.15039-4.15039v-14.4043h14.4043c2.44141 0 4.15039-1.61133 4.15039-4.00391 0-2.44141-1.70898-4.15039-4.15039-4.15039h-14.4043v-14.3555c0-2.49023-1.70898-4.19922-4.15039-4.19922-2.39258 0-4.05273 1.70898-4.05273 4.19922v14.3555h-14.3555c-2.49023 0-4.15039 1.70898-4.15039 4.15039Z"/>
  </g>
  <g transform="matrix(0.2 0 0 0.2 304.924 1933)">
   <path d="m74.8535 28.3203c35.1074 0 63.623-28.4668 63.623-63.5742s-28.5156-63.623-63.623-63.623-63.5742 28.5156-63.5742 63.623 28.4668 63.5742 63.5742 63.5742Zm0-9.08203c-30.127 0-54.4922-24.3652-54.4922-54.4922s24.3652-54.4922 54.4922-54.4922 54.4922 24.3652 54.4922 54.4922-24.3652 54.4922-54.4922 54.4922Zm-28.8574-54.4922c0 2.58789 1.85547 4.39453 4.58984 4.39453h19.7266v19.7754c0 2.68555 1.85547 4.58984 4.44336 4.58984 2.68555 0 4.54102-1.85547 4.54102-4.58984v-19.7754h19.7754c2.68555 0 4.58984-1.80664 4.58984-4.39453 0-2.73438-1.85547-4.58984-4.58984-4.58984h-19.7754v-19.7266c0-2.73438-1.85547-4.63867-4.54102-4.63867-2.58789 0-4.44336 1.9043-4.44336 4.63867v19.7266h-19.7266c-2.73438 0-4.58984 1.85547-4.58984 4.58984Z"/>
  </g>
  <text style="stroke:none;fill:black;font-family:sans-serif;font-size:13;font-weight:bold;" transform="matrix(1 0 0 1 263 1953)">Design Variations</text>
  <text style="stroke:none;fill:black;font-family:sans-serif;font-size:13;" transform="matrix(1 0 0 1 263 1971)">Symbols are supported in up to nine weights and three scales.</text>
  <text style="stroke:none;fill:black;font-family:sans-serif;font-size:13;" transform="matrix(1 0 0 1 263 1989)">For optimal layout with text and other symbols, vertically align</text>
  <text style="stroke:none;fill:black;font-family:sans-serif;font-size:13;" transform="matrix(1 0 0 1 263 2007)">symbols with the adjacent text.</text>
  <line style="fill:none;stroke:#00AEEF;stroke-width:0.5;opacity:1.0;" x1="776" x2="776" y1="1919" y2="1933"/>
  <g transform="matrix(0.2 0 0 0.2 776 1933)">
   <path d="m16.5527 0.78125c2.58789 0 3.85742-0.976562 4.78516-3.71094l6.29883-17.2363h28.8086l6.29883 17.2363c0.927734 2.73438 2.19727 3.71094 4.73633 3.71094 2.58789 0 4.24805-1.5625 4.24805-4.00391 0-0.830078-0.146484-1.61133-0.537109-2.63672l-22.9004-60.9863c-1.12305-2.97852-3.125-4.49219-6.25-4.49219-3.02734 0-5.07812 1.46484-6.15234 4.44336l-22.9004 61.084c-0.390625 1.02539-0.537109 1.80664-0.537109 2.63672 0 2.44141 1.5625 3.95508 4.10156 3.95508Zm13.4766-28.3691 11.8652-32.8613h0.244141l11.8652 32.8613Z"/>
  </g>
  <line style="fill:none;stroke:#00AEEF;stroke-width:0.5;opacity:1.0;" x1="792.836" x2="792.836" y1="1919" y2="1933"/>
  <text style="stroke:none;fill:black;font-family:sans-serif;font-size:13;font-weight:bold;" transform="matrix(1 0 0 1 776 1953)">Margins</text>
  <text style="stroke:none;fill:black;font-family:sans-serif;font-size:13;" transform="matrix(1 0 0 1 776 1971)">Leading and trailing margins on the left and right side of each symbol</text>
  <text style="stroke:none;fill:black;font-family:sans-serif;font-size:13;" transform="matrix(1 0 0 1 776 1989)">can be adjusted by modifying the x-location of the margin guidelines.</text>
  <text style="stroke:none;fill:black;font-family:sans-serif;font-size:13;" transform="matrix(1 0 0 1 776 2007)">Modifications are automatically applied proportionally to all</text>
  <text style="stroke:none;fill:black;font-family:sans-serif;font-size:13;" transform="matrix(1 0 0 1 776 2025)">scales and weights.</text>
  <g transform="matrix(0.2 0 0 0.2 1289 1933)">
   <path d="m14.209 9.32617 8.49609 8.54492c4.29688 4.3457 9.22852 4.05273 13.8672-1.07422l53.4668-58.9355-4.83398-4.88281-53.0762 58.3984c-1.75781 2.00195-3.41797 2.49023-5.76172 0.146484l-5.85938-5.81055c-2.34375-2.29492-1.80664-4.00391 0.195312-5.81055l57.373-54.0039-4.88281-4.83398-57.959 54.4434c-4.93164 4.58984-5.32227 9.47266-1.02539 13.8184Zm32.0801-90.9668c-2.09961 2.05078-2.24609 4.93164-1.07422 6.88477 1.17188 1.80664 3.4668 2.97852 6.68945 2.14844 7.32422-1.70898 14.9414-2.00195 22.0703 2.68555l-2.92969 7.27539c-1.70898 4.15039-0.830078 7.08008 1.85547 9.81445l11.4746 11.5723c2.44141 2.44141 4.49219 2.53906 7.32422 2.05078l5.32227-0.976562 3.32031 3.36914-0.195312 2.7832c-0.195312 2.49023 0.439453 4.39453 2.88086 6.78711l3.80859 3.71094c2.39258 2.39258 5.46875 2.53906 7.8125 0.195312l14.5508-14.5996c2.34375-2.34375 2.24609-5.32227-0.146484-7.71484l-3.85742-3.80859c-2.39258-2.39258-4.24805-3.17383-6.64062-2.97852l-2.88086 0.244141-3.22266-3.17383 1.2207-5.61523c0.634766-2.83203-0.146484-5.0293-3.07617-7.95898l-10.9863-10.9375c-16.6992-16.6016-38.8672-16.2109-53.3203-1.75781Zm7.4707 1.85547c12.1582-8.88672 28.6133-7.37305 39.7461 3.75977l12.1582 12.0605c1.17188 1.17188 1.36719 2.09961 1.02539 3.80859l-1.61133 7.42188 7.51953 7.42188 4.93164-0.292969c1.26953-0.0488281 1.66016 0.0488281 2.63672 1.02539l2.88086 2.88086-12.207 12.207-2.88086-2.88086c-0.976562-0.976562-1.12305-1.36719-1.07422-2.68555l0.341797-4.88281-7.4707-7.42188-7.61719 1.26953c-1.61133 0.341797-2.34375 0.195312-3.56445-0.976562l-10.0098-10.0098c-1.26953-1.17188-1.41602-2.00195-0.634766-3.85742l4.39453-10.4492c-7.8125-7.27539-17.9688-10.4004-28.125-7.42188-0.78125 0.195312-1.07422-0.439453-0.439453-0.976562Z"/>
  </g>
  <text style="stroke:none;fill:black;font-family:sans-serif;font-size:13;font-weight:bold;" transform="matrix(1 0 0 1 1289 1953)">Exporting</text>
  <text style="stroke:none;fill:black;font-family:sans-serif;font-size:13;" transform="matrix(1 0 0 1 1289 1971)">Symbols should be outlined when exporting to ensure the</text>
  <text style="stroke:none;fill:black;font-family:sans-serif;font-size:13;" transform="matrix(1 0 0 1 1289 1989)">design is preserved when submitting to Xcode.</text>
  <text id="template-version" style="stroke:none;fill:black;font-family:sans-serif;font-size:13;text-anchor:end;" transform="matrix(1 0 0 1 3036 1933)">Template v.6.0</text>
  <text style="stroke:none;fill:black;font-family:sans-serif;font-size:13;text-anchor:end;" transform="matrix(1 0 0 1 3036 1951)">Requires Xcode 16 or greater</text>
  <text id="descriptive-name" style="stroke:none;fill:black;font-family:sans-serif;font-size:13;text-anchor:end;" transform="matrix(1 0 0 1 3036 1969)">Generated from </text>
  <text style="stroke:none;fill:black;font-family:sans-serif;font-size:13;text-anchor:end;" transform="matrix(1 0 0 1 3036 1987)">Typeset at 100.0 points</text>
  <text style="stroke:none;fill:black;font-family:sans-serif;font-size:13;" transform="matrix(1 0 0 1 263 726)">Small</text>
  <text style="stroke:none;fill:black;font-family:sans-serif;font-size:13;" transform="matrix(1 0 0 1 263 1156)">Medium</text>
  <text style="stroke:none;fill:black;font-family:sans-serif;font-size:13;" transform="matrix(1 0 0 1 263 1586)">Large</text>
 </g>
 <g id="Guides">
  <g id="H-reference" style="fill:#27AAE1;stroke:none;" transform="matrix(1 0 0 1 339 696)">
   <path d="M0.993654 0L3.63775 0L29.3281-67.1323L30.0303-67.1323L30.0303-70.459L28.1226-70.459ZM11.6885-24.4799L46.9815-24.4799L46.2315-26.7285L12.4385-26.7285ZM55.1196 0L57.7637 0L30.6382-70.459L29.4326-70.459L29.4326-67.1323Z"/>
  </g>
  <line id="Baseline-S" style="fill:none;stroke:#27AAE1;opacity:1;stroke-width:0.5;" x1="263" x2="3036" y1="696" y2="696"/>
  <line id="Capline-S" style="fill:none;stroke:#27AAE1;opacity:1;stroke-width:0.5;" x1="263" x2="3036" y1="625.541" y2="625.541"/>
  <g id="H-reference" style="fill:#27AAE1;stroke:none;" transform="matrix(1 0 0 1 339 1126)">
   <path d="M0.993654 0L3.63775 0L29.3281-67.1323L30.0303-67.1323L30.0303-70.459L28.1226-70.459ZM11.6885-24.4799L46.9815-24.4799L46.2315-26.7285L12.4385-26.7285ZM55.1196 0L57.7637 0L30.6382-70.459L29.4326-70.459L29.4326-67.1323Z"/>
  </g>
  <line id="Baseline-M" style="fill:none;stroke:#27AAE1;opacity:1;stroke-width:0.5;" x1="263" x2="3036" y1="1126" y2="1126"/>
  <line id="Capline-M" style="fill:none;stroke:#27AAE1;opacity:1;stroke-width:0.5;" x1="263" x2="3036" y1="1055.54" y2="1055.54"/>
  <g id="H-reference" style="fill:#27AAE1;stroke:none;" transform="matrix(1 0 0 1 339 1556)">
   <path d="M0.993654 0L3.63775 0L29.3281-67.1323L30.0303-67.1323L30.0303-70.459L28.1226-70.459ZM11.6885-24.4799L46.9815-24.4799L46.2315-26.7285L12.4385-26.7285ZM55.1196 0L57.7637 0L30.6382-70.459L29.4326-70.459L29.4326-67.1323Z"/>
  </g>
  <line id="Baseline-L" style="fill:none;stroke:#27AAE1;opacity:1;stroke-width:0.5;" x1="263" x2="3036" y1="1556" y2="1556"/>
  <line id="Capline-L" style="fill:none;stroke:#27AAE1;opacity:1;stroke-width:0.5;" x1="263" x2="3036" y1="1485.54" y2="1485.54"/>
  <line id="right-margin-Black-S" style="fill:none;stroke:#00AEEF;stroke-width:0.5;opacity:1.0;" x1="3001.64" x2="3001.64" y1="600.785" y2="720.121"/>
  <line id="left-margin-Black-S" style="fill:none;stroke:#00AEEF;stroke-width:0.5;opacity:1.0;" x1="2865.16" x2="2865.16" y1="600.785" y2="720.121"/>
  <line id="right-margin-Regular-S" style="fill:none;stroke:#00AEEF;stroke-width:0.5;opacity:1.0;" x1="1510.9" x2="1510.9" y1="600.785" y2="720.121"/>
  <line id="left-margin-Regular-S" style="fill:none;stroke:#00AEEF;stroke-width:0.5;opacity:1.0;" x1="1388.78" x2="1388.78" y1="600.785" y2="720.121"/>
  <line id="right-margin-Ultralight-S" style="fill:none;stroke:#00AEEF;stroke-width:0.5;opacity:1.0;" x1="615.957" x2="615.957" y1="600.785" y2="720.121"/>
  <line id="left-margin-Ultralight-S" style="fill:none;stroke:#00AEEF;stroke-width:0.5;opacity:1.0;" x1="503.465" x2="503.465" y1="600.785" y2="720.121"/>
 </g>
 <g id="Symbols">
  <g id="Black-S" transform="matrix(1 0 0 1 2865.16 696)">
   <path class="monochrome-0 multicolor-0:tintColor hierarchical-0:secondary SFSymbolsPreviewWireframe" d="M29.7852 3.71094L43.0664 1.17188C52.9785-0.732422 57.8125-6.73828 57.8125-17.1387L57.8125-59.5703C57.8125-69.3848 50.7324-75.8301 40.6738-75.8301C31.2988-75.8301 25.1953-70.9961 22.7539-61.8164L10.5957-15.9668C6.93359-2.24609 15.5273 6.44531 29.7852 3.71094ZM44.2871-58.6914L44.2871-17.1387C44.2871-14.1113 43.2129-12.6465 40.5762-12.1582L28.125-9.76562C24.3652-9.0332 23.4863-11.6211 24.0234-13.623L36.084-59.082C36.6211-61.0352 38.1836-62.3047 40.4297-62.3047C42.7246-62.3047 44.2871-60.8887 44.2871-58.6914ZM106.641 3.71094C120.898 6.44531 129.492-2.24609 125.83-15.9668L113.672-61.8164C111.23-70.9961 105.127-75.8301 95.752-75.8301C85.6934-75.8301 78.6133-69.3848 78.6133-59.5703L78.6133-17.1387C78.6133-6.73828 83.4473-0.732422 93.3594 1.17188ZM92.1387-58.6914C92.1387-60.8887 93.7012-62.3047 95.9961-62.3047C98.2422-62.3047 99.8047-61.0352 100.342-59.082L112.402-13.623C112.939-11.6211 112.061-9.0332 108.301-9.76562L95.8496-12.1582C93.2129-12.6465 92.1387-14.1113 92.1387-17.1387Z"/>
   <path class="monochrome-1 multicolor-1:tintColor hierarchical-1:secondary SFSymbolsPreviewWireframe" d="M37.7441-16.9922L57.8125-21.2891L57.8125-35.0586L54.834-34.4238L44.043-44.1895C41.3574-46.6309 36.9629-46.3867 34.5215-43.7012C32.0312-40.918 32.2754-36.5723 35.0586-34.1309L38.623-30.957L35.0098-30.2246C31.3965-29.4922 29.0527-25.8789 29.7363-22.3145C30.4199-18.6523 34.1309-16.2109 37.7441-16.9922ZM98.6816-16.9922C102.295-16.2109 106.006-18.6523 106.689-22.3145C107.373-25.8789 105.029-29.4922 101.416-30.2246L97.8027-30.957L101.367-34.1309C104.15-36.5723 104.395-40.918 101.904-43.7012C99.4629-46.3867 95.0684-46.6309 92.3828-44.1895L81.5918-34.4238L78.6133-35.0586L78.6133-21.2891Z"/>
   <path class="monochrome-2 multicolor-2:tintColor hierarchical-2:secondary SFSymbolsPreviewWireframe" d="M68.2129-23.4863L78.6133-21.2891L78.6133-35.0586L74.9512-35.8398L74.9512-67.2852C74.9512-70.9473 71.9238-74.0234 68.2129-74.0234C64.502-74.0234 61.4746-70.9473 61.4746-67.2852L61.4746-35.8398L57.8125-35.0586L57.8125-21.2891Z"/>
   <path class="monochrome-3 multicolor-3:tintColor hierarchical-3:primary SFSymbolsPreviewWireframe" d="M112.212-4.48836C115.863-0.837264 115.863 5.09118 112.212 8.74227C108.561 12.3934 102.632 12.3934 98.9811 8.74227L24.2682-65.9706C20.6171-69.6217 20.6171-75.5502 24.2682-79.2013C27.9193-82.8524 33.8478-82.8524 37.4989-79.2013Z" data-clipstroke-keyframes="0 0 0.0 0.5 0.6082697 0 1.0 0.10826972 0.0"/>
   <path class="monochrome-4 multicolor-4:tintColor hierarchical-4:primary SFSymbolsPreviewWireframe" d="M108.062-0.338247C109.422 1.02234 109.422 3.23158 108.062 4.59217C106.701 5.95275 104.492 5.95275 103.131 4.59217L28.4183-70.1207C27.0578-71.4813 27.0578-73.6906 28.4183-75.0511C29.7789-76.4117 31.9882-76.4117 33.3488-75.0511Z" data-clipstroke-keyframes="0 0 0.0 0.5 0.5458696 0 1.0 0.04586959 0.0"/>
  </g>
  <g id="Regular-S" transform="matrix(1 0 0 1 1388.78 696)">
   <path class="monochrome-0 multicolor-0:tintColor hierarchical-0:secondary SFSymbolsPreviewWireframe" d="M24.0723 0.195312L39.209-2.73438C47.5098-4.3457 51.2695-8.93555 51.2695-17.7734L51.2695-59.4238C51.2695-67.334 45.7031-72.7051 37.4023-72.7051C30.4688-72.7051 24.5117-67.7246 22.5098-60.3516L10.4004-14.4043C7.76367-4.49219 13.5254 2.19727 24.0723 0.195312ZM44.2383-59.4238L44.2383-17.7734C44.2383-12.2559 42.8711-10.6445 37.9395-9.66797L22.8027-6.73828C18.7988-5.95703 16.1133-8.30078 17.334-12.8906L29.3457-58.5449C30.5176-62.8418 33.6914-65.625 37.4023-65.625C41.5527-65.625 44.2383-63.1836 44.2383-59.4238ZM98.0469 0.195312C108.594 2.19727 114.404-4.49219 111.719-14.4043L99.6094-60.3516C97.6562-67.7246 91.6992-72.7051 84.7168-72.7051C76.4648-72.7051 70.8496-67.334 70.8496-59.4238L70.8496-17.7734C70.8496-8.93555 74.6094-4.3457 82.9102-2.73438ZM77.8809-59.4238C77.8809-63.1836 80.5664-65.625 84.7168-65.625C88.4277-65.625 91.6016-62.8418 92.8223-58.5449L104.834-12.8906C106.006-8.30078 103.369-5.95703 99.3164-6.73828L84.1797-9.66797C79.248-10.6445 77.8809-12.2559 77.8809-17.7734Z"/>
   <path class="monochrome-1 multicolor-1:tintColor hierarchical-1:secondary SFSymbolsPreviewWireframe" d="M30.3223-16.8945L51.2695-21.2891L51.2695-28.5156L46.875-27.5391L35.1074-38.2324C33.7402-39.4531 31.3965-39.4043 30.0781-37.9883C28.8086-36.5234 29.0039-34.2285 30.4199-32.959L38.4277-25.7812L28.8086-23.7305C27.0508-23.3398 25.7812-21.4355 26.123-19.5801C26.4648-17.6758 28.4668-16.5039 30.3223-16.8945ZM91.7969-16.8945C93.6523-16.5039 95.6543-17.6758 95.9961-19.5801C96.3867-21.4355 95.1172-23.3398 93.3105-23.7305L83.6914-25.7812L91.6992-32.959C93.1152-34.2285 93.3105-36.5234 92.041-37.9883C90.7227-39.4043 88.3789-39.4531 87.0117-38.2324L75.2441-27.5391L70.8496-28.5156L70.8496-21.2891Z"/>
   <path class="monochrome-2 multicolor-2:tintColor hierarchical-2:secondary SFSymbolsPreviewWireframe" d="M61.084-23.3887L70.8496-21.2891L70.8496-28.5156L64.5508-29.834L64.5508-67.4316C64.5508-69.3359 62.9883-70.9473 61.084-70.9473C59.1309-70.9473 57.5684-69.3359 57.5684-67.4316L57.5684-29.834L51.2695-28.5156L51.2695-21.2891Z"/>
   <path class="monochrome-3 multicolor-3:tintColor hierarchical-3:primary SFSymbolsPreviewWireframe" d="M102.113-6.06714C105.395-2.78573 105.395 2.54245 102.113 5.82386C98.8319 9.10527 93.5038 9.10527 90.2224 5.82386L20.0067-64.3918C16.7252-67.6733 16.7252-73.0014 20.0067-76.2828C23.2881-79.5643 28.6162-79.5643 31.8976-76.2828Z" data-clipstroke-keyframes="0 0 0.0 0.5 0.60452837 0 1.0 0.104528375 0.0"/>
   <path class="monochrome-4 multicolor-4:tintColor hierarchical-4:primary SFSymbolsPreviewWireframe" d="M98.6469-2.60066C100.015-1.23245 100.015 0.98917 98.6469 2.35738C97.2787 3.72558 95.057 3.72558 93.6888 2.35738L23.4731-67.8583C22.1049-69.2265 22.1049-71.4482 23.4731-72.8164C24.8413-74.1846 27.063-74.1846 28.4312-72.8164Z" data-clipstroke-keyframes="0 0 0.0 0.5 0.5487678 0 1.0 0.048767686 0.0"/>
  </g>
  <g id="Ultralight-S" transform="matrix(1 0 0 1 503.465 696)">
   <path class="monochrome-0 multicolor-0:tintColor hierarchical-0:secondary SFSymbolsPreviewWireframe" d="M21.3931-1.89354L36.1665-4.73241C43.3321-6.11669 46.229-9.70751 46.229-17.3647L46.229-59.0151C46.229-65.563 41.7979-69.8897 34.814-69.8897C28.9248-69.8897 23.876-65.6358 22.2373-59.3525L10.3096-13.9956C7.8999-4.76465 14.0703-0.481912 21.3931-1.89354ZM44.0566-59.0151L44.0566-17.3647C44.0566-10.8027 41.9175-8.14699 35.8052-6.94338L20.6685-4.01369C14.7574-2.86916 10.7095-6.80226 12.3843-13.1177L24.396-58.7266C25.795-64.0679 30.0132-67.6684 34.814-67.6684C40.2359-67.6684 44.0566-64.0918 44.0566-59.0151ZM91.0538-1.89354C98.422-0.481912 104.596-4.76465 102.183-13.9956L90.255-59.3525C88.5743-65.6358 83.5709-69.8897 77.6329-69.8897C70.6978-69.8897 66.2178-65.563 66.2178-59.0151L66.2178-17.3647C66.2178-9.70751 69.1602-6.11669 76.3257-4.73241ZM68.4356-59.0151C68.4356-64.0918 72.2564-67.6684 77.6329-67.6684C82.4791-67.6684 86.6519-64.0679 88.0542-58.7266L100.066-13.1177C101.783-6.80226 97.7383-2.86916 91.8238-4.01369L76.6871-6.94338C70.5748-8.14699 68.4356-10.8027 68.4356-17.3647Z"/>
   <path class="monochrome-1 multicolor-1:tintColor hierarchical-1:secondary SFSymbolsPreviewWireframe" d="M25.7813-19.0288L46.229-23.3779L46.229-25.6094L41.0625-24.4512L29.7491-34.5542C29.4263-34.9576 28.5811-34.9541 28.2163-34.4917C27.855-34.1167 27.8687-33.3657 28.3311-32.959L38.4731-23.9194L25.312-21.1421C24.7803-21.0239 24.3735-20.4365 24.4883-19.8525C24.603-19.3559 25.1973-18.9106 25.7813-19.0288ZM86.711-19.0288C87.295-18.9106 87.8892-19.3559 88.004-19.8525C88.1221-20.4365 87.7154-21.0239 87.1802-21.1421L74.0191-23.9194L84.1612-32.959C84.6236-33.3657 84.6373-34.1167 84.2759-34.4917C83.8658-34.9541 83.066-34.9576 82.7432-34.5542L71.4297-24.4512L66.2178-25.6094L66.2178-23.3779Z"/>
   <path class="monochrome-2 multicolor-2:tintColor hierarchical-2:secondary SFSymbolsPreviewWireframe" d="M56.2251-25.4775L66.2178-23.3779L66.2178-25.6094L57.3306-27.5181L57.3306-67.023C57.3306-67.6104 56.858-68.1319 56.2251-68.1319C55.6343-68.1319 55.1616-67.6104 55.1616-67.023L55.1616-27.5181L46.229-25.6094L46.229-23.3779Z"/>
   <path class="monochrome-3 multicolor-3:tintColor hierarchical-3:primary SFSymbolsPreviewWireframe" d="M93.9322-3.06064C95.4548-1.53808 95.4548 0.934172 93.9322 2.45673C92.4097 3.97929 89.9374 3.97929 88.4149 2.45673L18.5598-67.3983C17.0372-68.9209 17.0372-71.3932 18.5598-72.9157C20.0823-74.4383 22.5546-74.4383 24.0771-72.9157Z" data-clipstroke-keyframes="0 0 0.0 0.5 0.55392593 0 1.0 0.053925958 0.0"/>
   <path class="monochrome-4 multicolor-4:tintColor hierarchical-4:primary SFSymbolsPreviewWireframe" d="M91.8813-1.00975C92.272-0.619106 92.272 0.0152006 91.8813 0.405845C91.4907 0.796489 90.8564 0.796489 90.4657 0.405845L20.6107-69.4492C20.22-69.8399 20.22-70.4742 20.6107-70.8648C21.0013-71.2555 21.6356-71.2555 22.0263-70.8648Z" data-clipstroke-keyframes="0 0 0.0 0.5 0.5139301 0 1.0 0.013930082 0.0"/>
  </g>
 </g>
</svg>
