<?xml version="1.0" encoding="utf-8" ?>
<svg xmlns="http://www.w3.org/2000/svg" xmlns:xlink="http://www.w3.org/1999/xlink" width="350" height="367">
	<path fill="#FEFEFE" d="M131.363 215.686C129.705 210.402 127.108 205.16 124.956 200.046L114.733 175.648C111.767 168.633 108.633 161.575 106.257 154.332C105.101 150.807 104.201 146.89 106.005 143.416C107.383 140.761 110.729 138.282 113.573 137.416C116.698 136.465 119.502 137.167 122.315 138.683C124.549 139.887 126.588 141.538 128.026 143.645C130.989 147.983 132.572 153.407 134.515 158.253C139.224 169.996 143.765 181.551 147.486 193.66L161.71 238.117C163.786 244.597 167.013 252.898 168.408 259.349C168.738 260.873 168.552 262.708 168.533 264.269C167.391 263.833 166.241 263.412 165.129 262.903C166.807 266.283 168.78 270.684 169.469 274.378C170.431 272.456 171.252 270.528 172.012 268.518C174.346 270.643 177.208 272.32 179.252 274.719C180.874 276.622 181.925 278.97 183.513 280.895L184.727 283.228C185.225 284.866 186.021 287.001 185.545 288.695C184.962 289.396 184.575 289.424 183.71 289.724C183.039 289.957 182.632 290.193 182.319 290.852C181.585 292.401 181.024 293.145 179.348 293.737C175.415 295.126 170.258 292.727 166.922 293.701C165.112 294.23 160.1 297.263 158.577 296.803C158.637 296.322 158.727 295.955 158.899 295.502L158.81 295.278C157.397 295.708 157.002 297.009 155.184 296.857C154.532 296.48 154.252 296.228 154.051 295.443C153.956 295.073 153.896 294.691 153.834 294.315L153.547 294.067C153.011 295.456 153.059 296.589 151.561 297.255C150.646 297.218 149.862 297.032 149.213 296.337C148.726 295.816 148.554 295.197 148.64 294.493C148.783 293.328 150.065 291.827 149.903 290.799C149.544 290.939 149.255 291.118 148.931 291.322L148.341 291.217C147.613 290.173 147.743 288.4 147.962 287.182C148.015 286.887 148.095 286.6 148.184 286.315C148.17 283.926 150.685 282.781 150.721 281.332C149.68 280.234 148.443 280 147.028 279.648C141.24 280.077 135.828 283.549 131.852 287.545C129.738 287.281 127.642 287.001 125.561 286.533C124.57 286.311 123.482 285.822 122.498 285.703C119.339 283.537 116.826 281.027 114.281 278.182C118.282 264.154 121.875 249.981 125.598 235.876C127.07 230.301 129.003 220.646 131.363 215.686ZM147.028 279.648C148.443 280 149.68 280.234 150.721 281.332C150.685 282.781 148.17 283.926 148.184 286.315C150.452 282.305 153.605 278.534 156.286 274.768C155.637 273.232 153.88 269.879 153.585 268.565C153.577 268.697 153.566 268.829 153.561 268.962C153.539 269.528 153.555 270.108 153.396 270.657C152.752 272.874 148.973 278.691 147.028 279.648Z"/>
	<path d="M154.661 248.045C155.294 248.017 155.897 248.031 156.528 248.087C157.694 248.861 160.17 258.142 160.548 259.979L163.203 257.496C162.951 259.658 163.403 267.85 162.449 269.105L162.055 268.832C159.386 265.991 157.092 262.866 154.488 259.974C155.581 260.228 156.74 260.617 157.869 260.467C158.357 259.578 154.918 250.282 154.687 248.284L154.661 248.045Z"/>
	<path fill="#FEFEFE" d="M173.285 251.782C175.334 243.838 176.63 235.593 178.352 227.562L189.354 176.189C190.994 168.437 192.594 160.709 194.559 153.031C195.373 149.848 196.068 146.518 197.335 143.478C198.659 140.3 200.774 137.488 203.78 135.739C206.983 133.876 211.337 133.195 214.924 134.209C218.276 135.157 221.076 137.718 222.722 140.74C225.014 144.946 224.927 149.123 223.572 153.617C222.84 156.044 221.901 158.393 221.133 160.803C219.573 165.695 218.136 170.629 216.627 175.538C215.714 178.509 214.357 181.847 214.021 184.929L214.626 185.241L214.576 185.238C214.629 185.307 214.684 185.374 214.734 185.445C215.153 186.038 219.267 213.463 219.764 216.161Q220.324 219.288 221.262 222.323C225.602 236.267 230.292 250.119 234.783 264.017C235.651 266.704 239.173 276.08 239.173 278.333C239.173 278.44 239.167 278.548 239.165 278.655C235.729 277.998 232.096 277.772 228.615 277.349C225.208 277.543 222.029 276.676 218.66 276.61C214.954 276.537 211.394 277.166 207.721 277.429C204.648 277.648 201.551 277.37 198.485 277.592C195.646 277.798 186.86 279.445 184.88 281.266C184.749 281.933 184.721 282.549 184.727 283.228L183.513 280.895L183.65 280.577C180.247 274.125 177.339 272.534 172.227 267.855L174.515 262.608C173.368 263.273 172.198 263.881 171.019 264.485C171.084 260.25 172.549 255.949 173.285 251.782ZM183.65 280.577L183.513 280.895L184.727 283.228C184.721 282.549 184.749 281.933 184.88 281.266C186.86 279.445 195.646 277.798 198.485 277.592C201.551 277.37 204.648 277.648 207.721 277.429C211.394 277.166 214.954 276.537 218.66 276.61C222.029 276.676 225.208 277.543 228.615 277.349C224.036 276.704 219.495 276.036 214.855 276.207C209.191 276.416 203.742 277.421 198.015 277.224C196.385 270.597 194.409 263.964 191.9 257.613C193.665 251.746 212.116 192.824 211.831 191.518C211.158 193.091 211.015 194.623 210.529 196.223L185.022 278.814C184.826 279.439 184.635 279.967 184.162 280.438L183.65 280.577Z"/>
	<path d="M183.164 248.931C183.886 248.983 184.45 248.938 184.975 249.456C185.234 252.034 182.744 258.377 181.916 261.07L185.613 260.46Q182.375 264.35 179.288 268.361Q178.724 269.044 178.144 269.713C177.631 265.79 177.013 261.837 177.01 257.873C177.924 258.609 178.769 259.468 179.629 260.268C180.706 256.516 181.597 252.498 183.164 248.931Z"/>
	<path fill="#FEFEFE" d="M132.625 121.164C137.79 127.545 145.333 136.315 152.604 140.074C153.126 140.343 153.761 140.841 154.327 140.942C154.475 140.969 154.595 140.955 154.748 140.951L154.753 140.789C154.55 140.649 154.404 140.582 154.18 140.486C144.42 136.293 128.572 116.639 124.621 106.64C121.633 99.0771 120.291 90.2202 123.596 82.5516C126.398 76.0513 131.73 70.5656 138.343 67.9655C145.38 65.1985 153.916 64.5557 160.928 67.6559C168.79 71.1316 173.74 76.9697 176.757 84.8944C179.731 92.7074 181.935 103.733 180.417 112.04C179.768 115.596 178.301 119.166 176.817 122.448C174.245 128.133 168.574 137.871 163.027 140.87C163.621 140.999 164.315 140.589 164.825 140.261C166.362 139.274 167.615 137.689 168.786 136.301C174.898 129.054 179.273 119.997 181.51 110.805C184.994 111.58 188.561 112.253 191.888 113.571C199.517 116.592 215.502 125.956 220.053 133.117C220.559 133.913 220.982 134.766 221.006 135.726C220.669 135.917 220.68 135.917 220.296 135.807C218.879 135.4 217.657 134.278 216.296 133.674C212.58 132.023 206.989 133.225 203.526 135.021C198.973 137.383 196.498 141.794 195.044 146.536C191.627 157.678 189.711 169.414 187.378 180.83L178.097 225.912C176.298 234.663 174.677 243.506 172.611 252.197L173.285 251.782C172.549 255.949 171.084 260.25 171.019 264.485C172.198 263.881 173.368 263.273 174.515 262.608L172.227 267.855C177.339 272.534 180.247 274.125 183.65 280.577L183.513 280.895C181.925 278.97 180.874 276.622 179.252 274.719C177.208 272.32 174.346 270.643 172.012 268.518C171.252 270.528 170.431 272.456 169.469 274.378C168.78 270.684 166.807 266.283 165.129 262.903C166.241 263.412 167.391 263.833 168.533 264.269C168.552 262.708 168.738 260.873 168.408 259.349C167.013 252.898 163.786 244.597 161.71 238.117L147.486 193.66L147.713 193.787L148.063 193.633L148.211 192.332C146.595 188.159 145.542 183.782 143.999 179.582C141.069 171.603 137.617 163.748 134.363 155.895C132.519 151.444 130.953 146.441 128.053 142.558C126.443 140.403 123.931 138.619 121.494 137.524C118.356 136.114 115.47 135.937 112.245 137.188C109.924 138.089 108.134 139.558 106.058 140.844C108.153 134.593 113.839 129.767 119.607 126.895C123.791 124.811 128.232 122.762 132.625 121.164Z"/>
	<path d="M148.211 192.332C148.729 194.811 149.686 197.294 150.448 199.712L154.834 213.631C158.879 226.459 162.707 239.406 166.993 252.152C167.297 253.055 168.011 255.679 168.655 256.194C168.455 252.659 168.796 249.106 168.81 245.559C168.827 241.351 168.292 235.64 168.951 231.632C169.36 231.245 169.822 231.081 170.41 231.093C170.587 231.096 170.654 231.138 170.799 231.202C171.564 233.242 170.849 252.54 171.294 256.608C171.864 255.146 172.281 253.731 172.611 252.197L173.285 251.782C172.549 255.949 171.084 260.25 171.019 264.485C172.198 263.881 173.368 263.273 174.515 262.608L172.227 267.855C177.339 272.534 180.247 274.125 183.65 280.577L183.513 280.895C181.925 278.97 180.874 276.622 179.252 274.719C177.208 272.32 174.346 270.643 172.012 268.518C171.252 270.528 170.431 272.456 169.469 274.378C168.78 270.684 166.807 266.283 165.129 262.903C166.241 263.412 167.391 263.833 168.533 264.269C168.552 262.708 168.738 260.873 168.408 259.349C167.013 252.898 163.786 244.597 161.71 238.117L147.486 193.66L147.713 193.787L148.063 193.633L148.211 192.332Z"/>
	<path fill="#FE443C" d="M117.545 319.241C115.91 320.549 114.257 321.83 112.513 322.991C110.025 324.648 107.364 326.075 104.754 327.529C97.477 331.579 91.1936 334.466 82.6079 332.676C76.4644 331.395 71.5391 327.397 68.1615 322.209C62.7962 313.968 61.2241 304.074 63.2883 294.504C65.207 285.609 69.5766 278.718 77.2965 273.747C82.868 270.16 95.3997 263.488 102.056 265.015C107.623 266.292 110.108 273.322 112.859 277.649C114.056 279.533 119.95 285.368 122.151 285.675C122.266 285.691 122.382 285.694 122.498 285.703C123.482 285.822 124.57 286.311 125.561 286.533C127.642 287.001 129.738 287.281 131.852 287.545C135.828 283.549 141.24 280.077 147.028 279.648C148.443 280 149.68 280.234 150.721 281.332C150.685 282.781 148.17 283.926 148.184 286.315C148.095 286.6 148.015 286.887 147.962 287.182C147.743 288.4 147.613 290.173 148.341 291.217L148.931 291.322C149.255 291.118 149.544 290.939 149.903 290.799C150.065 291.827 148.783 293.328 148.64 294.493C148.554 295.197 148.726 295.816 149.213 296.337C149.862 297.032 150.646 297.218 151.561 297.255C153.059 296.589 153.011 295.456 153.547 294.067L153.834 294.315C153.896 294.691 153.956 295.073 154.051 295.443C154.252 296.228 154.532 296.48 155.184 296.857C157.002 297.009 157.397 295.708 158.81 295.278L158.899 295.502C158.727 295.955 158.637 296.322 158.577 296.803C160.1 297.263 165.112 294.23 166.922 293.701C170.258 292.727 175.415 295.126 179.348 293.737C181.024 293.145 181.585 292.401 182.319 290.852C182.632 290.193 183.039 289.957 183.71 289.724C184.575 289.424 184.962 289.396 185.545 288.695C186.021 287.001 185.225 284.866 184.727 283.228C184.721 282.549 184.749 281.933 184.88 281.266C186.86 279.445 195.646 277.798 198.485 277.592C201.551 277.37 204.648 277.648 207.721 277.429C211.394 277.166 214.954 276.537 218.66 276.61C222.029 276.676 225.208 277.543 228.615 277.349C232.096 277.772 235.729 277.998 239.165 278.655C240.648 279.768 246.126 279.886 248.127 280.13C260.613 281.653 273.512 282.941 286.091 282.999C292.209 283.027 298.193 282.168 304.29 281.934Q327.135 280.962 350 280.931L350 346.086L350 366.562C349.791 366.689 349.73 366.742 349.516 366.823C348.014 367.394 315.34 367.001 311.187 367.002L246.612 367.008C235.589 367.008 224.539 367.166 213.519 366.994C212.778 366.982 212.196 366.969 211.511 366.655C211.418 366.699 211.326 366.746 211.231 366.787C210.178 367.234 154.203 367.254 152.736 366.716C151.332 366.103 149.757 364.755 148.458 363.889L136.353 355.745L125.45 348.513C123.2 347.042 120.814 345.649 118.702 343.987C115.463 341.439 113.187 338.161 112.706 333.999C112.037 328.212 114.062 323.666 117.545 319.241ZM211.511 366.655C212.196 366.969 212.778 366.982 213.519 366.994C224.539 367.166 235.589 367.008 246.612 367.008L311.187 367.002C315.34 367.001 348.014 367.394 349.516 366.823C349.73 366.742 349.791 366.689 350 366.562L350 346.086C333.921 345.713 317.793 345.796 301.729 344.969C294.256 344.584 286.741 344.28 279.279 343.789C272.041 343.312 264.571 342.599 257.318 342.72Q238.837 342.986 220.398 344.275Q210.373 345.037 200.373 346.075C196.025 346.523 186.879 348.075 182.802 347.375C177.828 346.521 164.36 336.495 158.627 333.623L158.517 333.222L158.543 333.607L158.171 333.465C159.302 334.456 160.687 335.107 161.945 335.922Q168.373 340.039 174.904 343.99Q193.268 355.225 211.511 366.655Z"/>
</svg>
