<svg xmlns="http://www.w3.org/2000/svg" xmlns:xlink="http://www.w3.org/1999/xlink" viewBox="76.2 202.62 349.8 383.52">
	<path d="M159.126 265.757C158.3 263.579 156.778 261.646 155.602 259.641C152.585 254.502 149.518 249.208 147.675 243.513C145.51 236.822 145.611 229.579 148.886 223.24C153.5 214.306 162.052 206.826 171.706 203.871C177.022 202.244 185.153 202.199 190.481 203.797C192.453 204.389 194.357 205.431 196.176 206.394C205.412 211.281 210.995 222.411 214.512 231.815C215.648 234.851 216.891 238.151 217.198 241.399C217.57 245.346 217.649 249.419 217.745 253.384C217.791 255.287 217.388 257.904 217.935 259.686C218.674 259.438 218.428 258.573 219.237 258.145C221.762 258.246 224.011 259.69 226.282 260.655C237.727 265.518 249.332 271.573 258.955 279.527C261.241 281.417 267.1 286.362 267.177 289.324C267.199 290.189 266.808 290.493 266.288 291.109L265.894 291.807C269.094 294.562 271.356 299.724 271.696 303.899C271.831 305.56 271.678 307.072 271.294 308.689C270.73 311.069 269.69 313.304 268.943 315.627C267.785 319.226 266.738 322.849 265.557 326.446C264.785 328.798 264.332 331.245 263.6 333.614C261.642 339.942 259.506 346.23 257.59 352.572L257.863 353.233L258.566 353.402L259.112 353.022C260.06 353.704 260.145 354.974 260.325 356.071C260.956 359.907 261.083 363.809 261.694 367.65C262.368 371.882 263.514 376.05 264.089 380.294C265.298 389.219 266.401 399.501 268.778 408.138C269.429 410.505 270.36 412.787 271.138 415.112L275.966 429.849C277.24 433.776 278.604 437.751 279.776 441.702C280.333 443.579 280.621 445.599 281.259 447.436C281.713 448.743 282.504 449.929 282.963 451.247C283.688 453.328 284.069 455.53 284.736 457.633C285.459 459.913 291.432 477.201 291.287 477.973C290.993 478.098 290.678 478.267 290.372 478.351C286.714 478.456 281.94 476.873 278.212 476.297Q267.651 474.646 256.965 474.912C252.725 474.982 244.08 476.009 240.369 474.043C239.982 474.32 239.835 474.472 239.338 474.469C238.262 474.462 237.001 473.986 235.932 473.785C233.164 473.266 228.437 472.356 225.736 473.01C225.387 473.095 225.106 473.165 224.743 473.175C224.628 473.178 224.514 473.179 224.399 473.181C224.172 474.55 223.992 477.439 222.967 478.356C222.903 478.413 222.824 478.45 222.753 478.498C221.787 478.174 221.85 477.371 221.124 476.734C219.108 479.579 220.248 482.071 215.921 482.77C211.093 483.55 205.749 481.523 201.153 482.691C198.988 483.241 193.062 486.598 191.313 486.097C191.142 483.971 194.092 481.962 194.572 479.894L194.392 479.851C193.153 481.639 190.766 486.181 188.459 486.494C187.992 486.557 187.597 486.458 187.208 486.185C186.224 485.496 185.609 483.849 185.515 482.7C185.41 481.417 185.702 479.97 185.85 478.688C187.521 477.999 188.704 475.744 189.378 474.161C188.492 475.433 187.23 477.28 185.719 477.812C185.661 477.687 185.601 477.564 185.547 477.438C184.174 474.282 185.891 471.101 185.414 469.63C184.082 471.428 185.232 472.804 182.932 475.327C181.487 476.913 181.167 479.384 178.894 480.064C178.314 476.17 178.299 473.658 180.717 470.368C182.833 467.488 187.595 462.023 188.633 459.008C187.274 457.805 186.36 455.024 185.59 453.346C185.57 455.683 185.977 457.52 186.799 459.697C183.917 467.123 176.122 469.449 178.076 478.718C174.29 480.851 169.784 481.704 166.037 483.962C164.256 485.036 161.234 488.5 159.796 488.995C157.231 489.638 149.62 486.68 147.349 485.333C145.452 484.209 143.492 482.713 141.943 481.143C140.918 480.17 139.848 478.856 139.15 477.622L150.349 437.03L157.536 409.999C158.561 406.236 159.019 401.138 161.108 397.818C161.75 397.98 162.104 398.673 162.508 399.194L162.757 399.162C163.107 396.695 159.946 391.933 158.956 389.552L138.362 339.797C135.61 333.26 132.998 326.722 130.424 320.12C128.97 316.392 127.228 312.812 126.442 308.857C125.657 304.912 126.055 301.123 128.303 297.732C128.265 297.196 128.072 296.72 127.895 296.217C127.642 293.015 129.562 290.058 131.258 287.471C136.532 279.424 144.677 273.201 153 268.559C154.956 267.468 156.911 266.219 159.126 265.757ZM235.825 424.849C234.375 428 233.657 431.329 232.575 434.606C230.456 441.027 228.294 447.484 226.41 453.981C225.6 456.774 224.99 459.629 224.178 462.42C223.702 464.056 222.55 465.573 222.174 467.2C222.03 467.822 222.256 468.294 222.471 468.869C223.028 470.357 223.983 471.632 224.399 473.181C224.514 473.179 224.628 473.178 224.743 473.175C225.106 473.165 225.387 473.095 225.736 473.01C228.437 472.356 233.164 473.266 235.932 473.785C237.001 473.986 238.262 474.462 239.338 474.469C239.835 474.472 239.982 474.32 240.369 474.043C238.576 468.78 231.154 446.842 231.824 442.622C232.692 437.159 235.413 432.023 236.402 426.616L236.468 426.24C236.327 425.763 236.045 425.296 235.825 424.849ZM223.93 358.286C223.219 360.813 222.114 363.499 221.681 366.058C221.279 368.439 221.86 371.192 220.445 373.269L220.13 373.26L219.722 372.544C218.493 373.479 216.05 383.774 215.809 385.72C215.749 386.209 215.68 386.936 215.939 387.349L216.251 385.896L216.502 385.901C217.117 389.054 217.084 392.588 215.732 395.499C215.397 394.781 215.248 394.055 215.078 393.284C213.961 395.018 213.255 397.95 213.797 399.985C213.828 400.103 213.875 400.215 213.914 400.33L213.979 399.89C214.149 400.751 214.186 401.498 214.135 402.374L214.13 402.562C214.054 404.533 213.68 406.213 213.908 408.221L213.967 407.938C214.216 406.781 214.737 405.718 214.976 404.584C215.177 403.626 215.137 402.628 215.355 401.666C215.76 399.876 216.456 398.165 216.86 396.377C217.504 393.523 217.762 390.554 218.358 387.673C219.156 383.818 220.321 380.074 221.208 376.247C221.779 373.784 221.893 371.245 222.398 368.774C222.915 366.247 223.822 363.781 224.243 361.238C224.376 360.439 224.661 359.363 224.393 358.59L223.93 358.286Z"/>
	<path fill="#F2F2F3" d="M235.825 424.849C236.11 422.215 237.476 416.322 239.056 414.323L239.546 414.187C240.112 415.258 239.61 416.725 239.277 417.823C238.878 419.14 236.986 425.418 236.468 426.24C236.327 425.763 236.045 425.296 235.825 424.849Z"/>
	<path fill="#F2F2F3" d="M245.151 289.652C250.664 287.204 255.727 285.135 261.727 287.527C263.35 288.174 265.488 289.547 266.288 291.109L265.894 291.807C264.191 290.63 263.307 289.713 261.251 288.968C256.089 287.099 250.274 288.272 245.412 290.54L245.151 289.652Z"/>
	<path fill="#F2F2F3" d="M127.895 296.217C131.822 293.058 136.293 290.351 141.562 290.889C146.661 291.409 150.91 294.657 154.017 298.553C156.427 301.574 159.653 306.918 159.681 310.89C159.135 310.621 154.781 300.867 153.894 299.604C149.692 293.617 142.057 290.604 135.048 293.039C131.847 294.152 130.945 296.297 128.303 297.732C128.265 297.196 128.072 296.72 127.895 296.217Z"/>
	<path fill="#F2F2F3" d="M245.151 289.652L245.412 290.54C238.806 296.07 238.281 300.644 236.115 308.371C234.917 312.645 233.739 316.726 232.863 321.091C232.189 324.45 231.576 328.857 229.971 331.891L229.688 331.805C229.032 327.512 233.986 307.901 235.642 303.093C237.41 297.959 240.006 292.164 245.151 289.652Z"/>
	<path fill="#F2F2F3" d="M257.59 352.572L257.863 353.233L258.566 353.402C257.966 358.449 255.795 363.585 254.328 368.425C251.581 377.485 249.136 386.678 245.888 395.576C244.816 398.314 244.633 402.577 243.025 404.902C242.515 404.768 242.247 404.69 241.873 404.311C242.315 401.069 243.932 397.851 244.689 394.618C245.488 390.722 247.148 387.049 248.336 383.267C250.255 377.157 251.992 370.973 253.844 364.841C255.086 360.728 256.533 356.749 257.59 352.572Z"/>
	<path d="M223.93 358.286L224.393 358.59C224.661 359.363 224.376 360.439 224.243 361.238C223.822 363.781 222.915 366.247 222.398 368.774C221.893 371.245 221.779 373.784 221.208 376.247C220.321 380.074 219.156 383.818 218.358 387.673C217.762 390.554 217.504 393.523 216.86 396.377C216.456 398.165 215.76 399.876 215.355 401.666C215.137 402.628 215.177 403.626 214.976 404.584C214.737 405.718 214.216 406.781 213.967 407.938L213.908 408.221C213.68 406.213 214.054 404.533 214.13 402.562L214.135 402.374C214.186 401.498 214.149 400.751 213.979 399.89L213.914 400.33C213.875 400.215 213.828 400.103 213.797 399.985C213.255 397.95 213.961 395.018 215.078 393.284C215.248 394.055 215.397 394.781 215.732 395.499C217.084 392.588 217.117 389.054 216.502 385.901L216.251 385.896L215.939 387.349C215.68 386.936 215.749 386.209 215.809 385.72C216.05 383.774 218.493 373.479 219.722 372.544L220.13 373.26L220.445 373.269C221.86 371.192 221.279 368.439 221.681 366.058C222.114 363.499 223.219 360.813 223.93 358.286Z"/>
	<path fill="#FE443B" d="M185.59 453.346C186.36 455.024 187.274 457.805 188.633 459.008C187.595 462.023 182.833 467.488 180.717 470.368C178.299 473.658 178.314 476.17 178.894 480.064C181.167 479.384 181.487 476.913 182.932 475.327C185.232 472.804 184.082 471.428 185.414 469.63C185.891 471.101 184.174 474.282 185.547 477.438C185.601 477.564 185.661 477.687 185.719 477.812C187.23 477.28 188.492 475.433 189.378 474.161C188.704 475.744 187.521 477.999 185.85 478.688C185.702 479.97 185.41 481.417 185.515 482.7C185.609 483.849 186.224 485.496 187.208 486.185C187.597 486.458 187.992 486.557 188.459 486.494C190.766 486.181 193.153 481.639 194.392 479.851L194.572 479.894C194.092 481.962 191.142 483.971 191.313 486.097C193.062 486.598 198.988 483.241 201.153 482.691C205.749 481.523 211.093 483.55 215.921 482.77C220.248 482.071 219.108 479.579 221.124 476.734C221.85 477.371 221.787 478.174 222.753 478.498C222.824 478.45 222.903 478.413 222.967 478.356C223.992 477.439 224.172 474.55 224.399 473.181C224.514 473.179 224.628 473.178 224.743 473.175C225.106 473.165 225.387 473.095 225.736 473.01C228.437 472.356 233.164 473.266 235.932 473.785C237.001 473.986 238.262 474.462 239.338 474.469C239.835 474.472 239.982 474.32 240.369 474.043C244.08 476.009 252.725 474.982 256.965 474.912Q267.651 474.646 278.212 476.297C281.94 476.873 286.714 478.456 290.372 478.351C290.63 478.585 290.8 478.762 291.143 478.867C293.232 479.501 296.354 479.438 298.568 479.707C304.735 480.458 310.938 481.469 317.126 481.985C322.213 482.408 327.326 482.439 332.418 482.796C338.772 483.242 345.416 484.134 351.779 483.84C356.023 483.643 360.19 482.854 364.418 482.583C368.614 482.314 372.861 482.422 377.065 482.324C381.146 482.228 385.221 481.934 389.303 481.846C393.662 481.751 423.937 482.236 426 481.085L426 559.744L426 585.499C425.762 585.645 425.695 585.704 425.451 585.797C423.777 586.435 385.945 586.001 381.396 586.002L300.581 586.009C286.875 586.009 273.148 586.166 259.445 585.996C258.55 585.985 257.776 585.993 256.946 585.592C256.837 585.644 256.73 585.701 256.62 585.749C255.418 586.269 187.563 586.28 185.957 585.661C184.12 584.816 179.149 580.993 176.92 579.526L157.768 566.806C153.448 563.959 148.806 561.216 144.804 557.936C139.965 553.971 137.77 551.215 137.182 544.8C136.783 540.445 138.128 534.798 140.566 531.156C141.682 529.49 143.11 528.095 144.395 526.566C143.706 526.619 138.446 531.23 137.342 531.988C130.259 536.851 117.319 544.414 108.919 544.765C101.157 545.09 93.719 542.935 87.9816 537.552C80.5655 530.596 76.4814 519.624 76.218 509.64C75.9416 499.163 78.6585 486.587 86.1623 478.799C93.4753 471.209 111.283 461.781 121.931 461.694C131.972 461.613 133.888 474.528 140.018 480.248C140.703 480.887 141.002 481.189 141.943 481.143C143.492 482.713 145.452 484.209 147.349 485.333C149.62 486.68 157.231 489.638 159.796 488.995C161.234 488.5 164.256 485.036 166.037 483.962C169.784 481.704 174.29 480.851 178.076 478.718C176.122 469.449 183.917 467.123 186.799 459.697C185.977 457.52 185.57 455.683 185.59 453.346ZM256.946 585.592C257.776 585.993 258.55 585.985 259.445 585.996C273.148 586.166 286.875 586.009 300.581 586.009L381.396 586.002C385.945 586.001 423.777 586.435 425.451 585.797C425.695 585.704 425.762 585.645 426 585.499L426 559.744C423.624 561.037 380.666 559.371 375.23 559.109L332.515 557.179C326.878 556.933 321.16 556.342 315.529 556.268C309.138 556.184 302.638 556.741 296.242 556.961C288.713 557.22 281.153 557.179 273.633 557.548C264.6 557.991 255.565 559.154 246.573 560.096C240.368 560.745 225.461 563.32 220.315 561.63C217.647 560.754 215.001 558.456 212.631 556.94C209.574 554.985 193.565 544.576 191.34 544.471C193.417 546.955 198.472 549.15 201.325 550.913L240.823 575.342C246.106 578.637 252.273 581.477 256.946 585.592Z"/>
	<path d="M183.95 475.143L184.406 475.603C184.949 478.071 185.452 483.786 184.096 485.93C183.753 486.474 183.211 486.807 182.565 486.831C181.789 486.859 181.235 486.542 180.67 486.059L180.245 486.028C179.76 485.599 179.406 485.414 179.265 484.741C178.647 481.801 182.349 477.372 183.95 475.143Z"/>
</svg>