<?xml version="1.0" encoding="utf-8" ?>
<svg xmlns="http://www.w3.org/2000/svg" xmlns:xlink="http://www.w3.org/1999/xlink" width="350" height="367">
	<path d="M85.645 234.194C86.2448 234.685 86.356 234.848 86.536 235.583L86.3326 235.477C86.0222 234.841 85.7829 234.877 85.1408 234.626L85.645 234.194Z"/>
	<path fill="#FEFEFE" d="M105.752 127.598C107.76 127.205 109.744 125.911 111.671 125.713C112.546 125.624 113.513 125.822 114.394 125.87C114.319 125.81 114.254 125.735 114.17 125.689C113.677 125.422 112.742 125.271 112.189 125.306C111.159 125.371 105.652 126.612 104.821 127.156C104.108 127.622 103.13 129.239 102.355 129.386C101.979 129.457 101.862 129.245 101.565 129.036C101.559 128.969 101.546 128.903 101.548 128.836C101.617 126.244 105.722 122.426 107.432 120.702C108.956 119.165 110.642 117.928 112.48 116.791C115.115 115.16 126.038 109.638 128.827 109.772C131.256 109.889 136.051 117.037 137.894 119.118C138.753 120.088 141.961 123.664 143.072 123.728C142.599 122.392 139.994 120.694 138.959 119.568C137.154 117.605 135.621 115.386 133.924 113.33C129.252 107.67 125.186 103.071 121.948 96.335C118.136 88.4049 116.019 77.945 119.019 69.4868C121.535 62.3955 126.91 55.8913 133.798 52.6758C141.057 49.2874 151.049 48.2132 158.641 50.9886Q159.329 51.2471 160.003 51.5385Q160.677 51.83 161.336 52.1539Q161.995 52.4777 162.638 52.8331Q163.281 53.1885 163.906 53.5747Q164.531 53.9608 165.136 54.3768Q165.741 54.7928 166.326 55.2377Q166.91 55.6825 167.473 56.1552Q168.035 56.6279 168.573 57.1272Q169.112 57.6266 169.626 58.1515Q170.14 58.6764 170.627 59.2256Q171.115 59.7748 171.576 60.347Q172.036 60.9192 172.469 61.513Q172.901 62.1069 173.304 62.721Q173.707 63.3351 174.079 63.968Q174.452 64.601 174.794 65.2512Q175.135 65.9014 175.445 66.5675C179.648 75.6655 182.756 90.0001 180.754 99.9093C179.919 104.041 177.824 108.636 175.945 112.413C174.948 114.417 173.975 116.566 172.777 118.454C171.785 120.017 170.114 121.674 169.479 123.399C170.044 123.501 170.873 122.109 171.212 121.629C173.901 117.809 176.3 113.501 178.012 109.151C179.106 106.37 179.969 103.379 181.266 100.694C181.6 100.003 182.058 99.0539 182.774 98.7026C184.963 97.6288 190.6 99.864 192.815 100.718C200.148 103.547 221.426 115.801 224.128 123.007C224.373 123.66 224.401 123.905 224.103 124.514C222.683 124.848 218.986 122.001 215.881 121.779C211.521 121.468 205.709 123.264 202.451 126.154C198.866 129.335 197.43 133.498 196 137.935C193.72 145.011 192.481 152.618 191.041 159.893L185.669 186.225C185.084 189.096 184.54 192.028 183.88 194.877C183.543 196.329 183.045 197.72 182.754 199.19C182.037 202.81 181.617 206.522 180.822 210.116C180.552 211.333 179.9 212.31 179.602 213.482C179.221 214.979 179.279 216.695 179.046 218.234C178.611 221.109 177.744 223.712 177.566 226.665L178.004 226.627L177.697 226.35C178.153 223.849 178.943 221.366 179.459 218.866C181.633 208.325 183.99 197.853 186.314 187.347C186.926 184.576 187.322 181.758 187.882 178.976C188.373 176.535 189.083 174.142 189.587 171.705C190.956 165.078 192.136 158.378 193.68 151.788C194.716 147.362 196.076 142.979 197.233 138.578C198.676 133.088 200.71 127.628 205.917 124.657C209.365 122.689 213.794 121.71 217.677 122.804C221.523 123.888 224.586 126.701 226.469 130.159C228.001 132.974 228.476 136.454 228.167 139.617C227.802 143.344 226.217 146.819 225.123 150.342C224.505 152.332 224.152 154.401 223.518 156.384C221.288 163.355 218.911 170.245 216.826 177.273C218.498 181.389 219.165 185.741 219.882 190.1L222.187 203.867C222.829 207.944 223.294 212.048 224.442 216.026C228.004 228.371 232.204 240.658 236.188 252.875C238.112 258.776 243.6 272.639 243.539 278.13C238.307 277.576 233.122 276.731 227.887 276.15C222.849 275.591 217.174 274.109 212.29 276.196L212.357 276.71C209.813 278.6 190.96 274.87 184.63 282.033C185.994 283.575 186.506 286.07 186.356 288.09C186.301 288.835 186.091 289.776 185.491 290.287C184.662 290.992 183.994 290.371 183.141 290.592C182.019 290.882 182.714 295.324 178.401 294.496C177.73 294.368 176.915 293.979 176.239 294.032C175.462 294.093 174.774 294.685 173.947 294.719C171.189 294.832 168.52 293.986 165.724 294.556C163.514 295.006 160.282 297.901 158.235 297.482C157.951 297.033 157.77 296.642 157.59 296.143C157.22 296.135 157.297 296.067 156.997 296.348C156.273 297.025 155.641 297.618 154.583 297.609C154.131 297.606 153.886 297.494 153.518 297.249C153.202 296.696 152.895 296.145 152.613 295.574C151.503 296.798 150.486 297.83 149.115 298.752C148.208 298.099 146.802 297.199 146.553 296.025C146.102 293.9 148.174 293.302 146.567 290.813C145.815 289.649 145.852 288.267 146.154 286.955C146.33 286.193 146.613 285.443 146.89 284.713C147.076 283.471 148.032 282.324 148.721 281.295L148.633 281.17C147.931 280.186 147.392 279.438 146.368 278.762C139.027 280.737 133.98 282.157 128.474 287.882C123.589 287.231 119.79 286.367 115.594 283.645C113.947 281.339 111.393 279.665 109.687 277.324C111.497 273.338 112.299 268.631 113.377 264.385L117.634 248.176L124.597 221.341C125.585 217.67 126.889 214.066 127.776 210.375C126.595 207.668 125.689 204.81 124.581 202.065L116.889 183.415C113.014 174.002 99.4357 145.881 99.8561 137.656C100.112 132.643 102.219 130.815 105.752 127.598ZM193.06 253.027C191.161 260.861 188.768 268.528 186.432 276.241C185.936 277.878 185.003 279.549 184.59 281.139C184.515 281.429 184.559 281.748 184.63 282.033C190.96 274.87 209.813 278.6 212.357 276.71L212.29 276.196C208.174 276.556 203.683 276.762 199.57 276.327Q198.187 270.878 196.552 265.499C195.477 262.044 193.116 257.894 193.088 254.318C193.085 253.888 193.066 253.457 193.06 253.027ZM146.368 278.762C147.392 279.438 147.931 280.186 148.633 281.17L148.721 281.295C148.032 282.324 147.076 283.471 146.89 284.713C147.457 284.175 153.544 275.987 153.941 275.215C154.927 273.302 154.153 272.724 153.426 271.043C153.003 270.067 152.713 268.986 152.392 267.971C152.16 268.225 152.171 268.143 152.1 268.41C151.075 272.268 148.335 275.327 146.368 278.762Z"/>
	<path fill="#FE443C" d="M113.386 321.213Q112.284 322.213 111.159 323.188C106.411 327.297 93.9494 334.571 87.9229 336.065C85.0922 336.767 82.0609 336.761 79.1644 336.544C72.5589 336.05 66.613 333.283 62.2813 328.186C56.1905 321.019 53.5153 310.236 54.2809 301.011C54.9998 292.348 58.2443 282.004 65.1595 276.223C71.1994 271.175 83.4895 264.841 91.3774 263.401C93.4552 263.022 95.4269 263.126 97.5097 263.322C99.6265 264.788 101.39 266.308 102.982 268.35C104.513 270.315 105.602 272.555 106.889 274.676C108.52 277.364 110.595 279.602 112.95 281.664C113.755 282.369 114.592 283.245 115.594 283.645C119.79 286.367 123.589 287.231 128.474 287.882C133.98 282.157 139.027 280.737 146.368 278.762C147.392 279.438 147.931 280.186 148.633 281.17L148.721 281.295C148.032 282.324 147.076 283.471 146.89 284.713C146.613 285.443 146.33 286.193 146.154 286.955C145.852 288.267 145.815 289.649 146.567 290.813C148.174 293.302 146.102 293.9 146.553 296.025C146.802 297.199 148.208 298.099 149.115 298.752C150.486 297.83 151.503 296.798 152.613 295.574C152.895 296.145 153.202 296.696 153.518 297.249C153.886 297.494 154.131 297.606 154.583 297.609C155.641 297.618 156.273 297.025 156.997 296.348C157.297 296.067 157.22 296.135 157.59 296.143C157.77 296.642 157.951 297.033 158.235 297.482C160.282 297.901 163.514 295.006 165.724 294.556C168.52 293.986 171.189 294.832 173.947 294.719C174.774 294.685 175.462 294.093 176.239 294.032C176.915 293.979 177.73 294.368 178.401 294.496C182.714 295.324 182.019 290.882 183.141 290.592C183.994 290.371 184.662 290.992 185.491 290.287C186.091 289.776 186.301 288.835 186.356 288.09C186.506 286.07 185.994 283.575 184.63 282.033C190.96 274.87 209.813 278.6 212.357 276.71L212.29 276.196C217.174 274.109 222.849 275.591 227.887 276.15C233.122 276.731 238.307 277.576 243.539 278.13C245.925 279.317 249.694 279.04 252.333 279.407Q270.042 281.961 287.928 282.42C291.209 282.526 294.478 282.79 297.764 282.708C305.056 282.525 312.266 281.28 319.551 281.063C329.691 280.761 339.854 281.061 350 280.88L350 296.128L350 296.644L350 350.062L350 366.562C349.791 366.69 349.731 366.742 349.517 366.823C347.945 367.42 314.877 367.001 310.533 367.001L241.809 367.008C230.144 367.008 218.454 367.164 206.791 366.994C206.053 366.984 205.477 366.981 204.79 366.671C204.693 366.713 204.598 366.758 204.5 366.797C203.182 367.313 148.905 367.224 143.177 366.974C142.76 366.956 142.394 366.852 142.007 366.698C138.199 364.981 133.326 360.946 129.753 358.541C124.735 355.165 119.312 352.157 114.584 348.377C110.933 345.458 108.307 341.914 107.807 337.16C107.154 330.951 109.629 325.912 113.386 321.213ZM180.586 351.403C180.855 351.795 181.144 352.16 181.527 352.446C184.209 354.451 187.517 356.014 190.387 357.785L199.856 363.575C201.495 364.596 203.081 365.776 204.79 366.671C205.477 366.981 206.053 366.984 206.791 366.994C218.454 367.164 230.144 367.008 241.809 367.008L310.533 367.001C314.877 367.001 347.945 367.42 349.517 366.823C349.731 366.742 349.791 366.69 350 366.562L350 350.062C347.465 351.64 317.333 349.17 311.571 349.078C299.049 348.877 286.653 347.77 274.152 347.27C265.3 346.916 256.553 347.174 247.702 347.435C243.268 347.566 238.773 347.518 234.355 347.82C227.072 348.317 219.695 348.856 212.431 349.559C206.745 350.109 186.099 352.948 181.784 351.982C181.351 351.886 180.959 351.634 180.586 351.403ZM350 296.644L350 296.128Q340.415 296.085 330.831 296.244C327.761 296.277 324.639 296.117 321.58 296.367C322.41 296.75 323.558 296.71 324.466 296.728C326.563 296.77 328.631 296.564 330.72 296.534C334.725 296.476 338.759 296.617 342.766 296.657C344.097 296.671 348.779 297.059 349.704 296.754C349.804 296.721 349.901 296.681 350 296.644Z"/>
	<path fill="#FE443C" fill-opacity="0.94901961" d="M350 296.644C349.901 296.681 349.804 296.721 349.704 296.754C348.779 297.059 344.097 296.671 342.766 296.657C338.759 296.617 334.725 296.476 330.72 296.534C328.631 296.564 326.563 296.77 324.466 296.728C323.558 296.71 322.41 296.75 321.58 296.367C324.639 296.117 327.761 296.277 330.831 296.244Q340.415 296.085 350 296.128L350 296.644Z"/>
</svg>
