<?xml version="1.0" encoding="utf-8" ?>
<svg xmlns="http://www.w3.org/2000/svg" xmlns:xlink="http://www.w3.org/1999/xlink" width="426" height="586">
	<path fill="#FE443B" d="M29.7069 404.219C29.7868 404.175 29.8681 404.134 29.9468 404.088C32.3667 402.675 34.3612 399.767 36.4276 397.792Q41.2081 393.208 46.3645 389.052C51.174 385.23 56.4654 382.186 62.0296 379.61C76.7017 372.817 90.2932 370.911 106.34 372.284C110.973 372.681 115.437 373.18 119.966 374.284Q124.644 375.412 129.244 376.825Q133.844 378.238 138.348 379.931Q142.853 381.624 147.245 383.589Q151.638 385.555 155.901 387.787C158.529 389.143 161.366 390.423 163.649 392.33C165.958 394.257 167.5 397.416 169.184 399.912L180.902 417.531L203.668 451.439L211.81 463.768C213.301 466 214.946 468.147 216.34 470.44C216.751 471.116 217.257 471.638 217.135 472.432C215.873 473.668 213.267 473.97 211.548 474.066C211.515 474.067 211.482 474.064 211.449 474.064C213.811 475.25 225.395 472.406 229.232 472.703C234.869 473.139 240.297 474.988 245.883 475.581C249.667 475.983 253.719 475.272 257.523 475.078C261.462 474.876 265.487 475.166 269.408 475.537C274.349 476.005 279.113 477.335 284.022 477.94C289.552 478.622 295.105 479.125 300.638 479.802C306.621 480.534 312.624 481.447 318.63 481.94C323.964 482.377 329.314 482.372 334.649 482.714C338.02 482.931 341.373 483.404 344.751 483.536C351.237 483.787 357.261 482.847 363.683 482.54C375.158 481.992 386.718 481.724 398.205 481.542C401.223 481.495 423.84 481.587 425.227 481.111C425.499 481.017 425.751 480.909 426 480.767L426 560.011L426 585.499C425.766 585.645 425.697 585.706 425.455 585.797C423.622 586.487 376.74 586.001 370.578 586.002L297.1 586.01C284.58 586.01 272.01 586.257 259.497 585.988C258.74 585.971 258.184 585.919 257.489 585.597C257.384 585.648 257.28 585.704 257.172 585.751C256.057 586.24 187.183 586.333 185.387 585.681C185.248 585.732 185.107 585.78 184.964 585.821C182.63 586.487 157.067 586.009 152.865 586.009L52.2077 586.006L17.9627 586C12.4873 585.999 6.7129 586.367 1.27041 585.947C0.75595 585.908 0.439471 585.749 0 585.499L0 486.488L0 435.988C1.52844 435.885 3.28575 433.407 4.31427 432.23C7.69824 428.361 25.3176 408.398 28.5382 406.73L29.7069 404.219ZM29.7069 404.219L28.5382 406.73C25.3176 408.398 7.69824 428.361 4.31427 432.23C3.28575 433.407 1.52844 435.885 0 435.988L0 486.488L0 585.499C0.439471 585.749 0.75595 585.908 1.27041 585.947C6.7129 586.367 12.4873 585.999 17.9627 586L52.2077 586.006L152.865 586.009C157.067 586.009 182.63 586.487 184.964 585.821C185.107 585.78 185.248 585.732 185.387 585.681C185.268 585.635 185.145 585.599 185.03 585.542C183.38 584.726 181.714 582.921 180.093 581.863L158.39 567.414C152.814 563.743 146.834 560.336 141.826 555.886C140.286 554.516 139.06 552.457 138.305 550.552C136.073 544.923 136.826 536.738 140.009 531.581C141.077 529.85 142.742 528.928 143.547 526.969C143.585 526.877 143.62 526.783 143.657 526.69C139.43 531.954 123.661 540.766 117.261 543.167Q116.581 543.42 115.89 543.638Q115.198 543.857 114.497 544.042Q113.796 544.226 113.086 544.376Q112.376 544.525 111.66 544.64Q110.944 544.754 110.223 544.833Q109.502 544.912 108.778 544.955Q108.054 544.999 107.329 545.006Q106.604 545.013 105.879 544.985Q105.155 544.957 104.432 544.893Q103.71 544.829 102.991 544.729Q102.273 544.629 101.561 544.494Q100.848 544.359 100.143 544.19Q99.438 544.02 98.7422 543.815Q98.0464 543.611 97.3615 543.372Q96.6767 543.133 96.0044 542.861Q95.3322 542.589 94.6742 542.284C85.4401 538 80.7353 528.592 77.4732 519.507C77.3982 519.382 77.2925 519.219 77.2311 519.08C74.885 513.763 75.9109 499.259 77.8578 493.889C79.6372 488.981 80.42 490.795 84.3016 488.805C90.0925 485.835 87.9251 478.401 89.2639 474.257C91.622 475.334 97.2962 474.168 99.7199 473.536C106.499 471.769 112.881 468.502 116.49 462.291C116.882 462.297 116.788 462.328 117.097 462.242C118.475 461.857 119.608 461.557 121.048 461.51L121.012 461.725C120.427 465.076 119.397 467.936 119.571 471.442C120.322 472.414 121.189 473.275 122.457 473.479C124.185 473.756 126.037 472.654 127.339 471.612C128.95 470.323 130.736 468.716 131.744 466.893C132.245 468.616 133.375 471.145 134.987 472.101C135.107 472.172 135.275 472.222 135.401 472.267C135.364 472.347 135.329 472.428 135.291 472.507C132.831 477.69 127.241 482.258 126.107 487.963C125.383 491.606 128.082 492.548 126.442 497.174C126.68 498.239 126.797 499.195 127.564 500.022C128.432 500.398 128.834 500.475 129.767 500.112C131.014 499.626 132.968 498.381 134.254 498.949C135.497 499.496 136.328 500.447 137.772 499.96C141.348 498.754 144.46 492.944 146.566 490.021C147.413 488.846 148.605 487.593 149.266 486.325C151.069 487.836 160.55 490.706 162.82 490.528C163.027 490.512 163.161 490.473 163.371 490.427C162.935 489.693 161.242 489.811 161.44 488.838C161.791 487.107 167.035 484.186 168.708 483.293C172.676 481.175 181.072 478.162 185.332 479.427C185.861 479.584 185.905 479.689 186.249 480.121C186.158 480.636 186.052 481.058 185.853 481.548C187.899 481.112 189.601 479.921 191.561 479.262C193.392 478.646 195.374 478.336 197.239 477.787C199.73 477.053 202.169 476.112 204.68 475.45C206.592 474.945 210.006 475.295 211.449 474.064C211.482 474.064 211.515 474.067 211.548 474.066C213.267 473.97 215.873 473.668 217.135 472.432C217.257 471.638 216.751 471.116 216.34 470.44C214.946 468.147 213.301 466 211.81 463.768L203.668 451.439L180.902 417.531L169.184 399.912C167.5 397.416 165.958 394.257 163.649 392.33C161.366 390.423 158.529 389.143 155.901 387.787Q151.638 385.555 147.245 383.589Q142.853 381.624 138.348 379.931Q133.844 378.238 129.244 376.825Q124.644 375.412 119.966 374.284C115.437 373.18 110.973 372.681 106.34 372.284C90.2932 370.911 76.7017 372.817 62.0296 379.61C56.4654 382.186 51.174 385.23 46.3645 389.052Q41.2081 393.208 36.4276 397.792C34.3612 399.767 32.3667 402.675 29.9468 404.088C29.8681 404.134 29.7868 404.175 29.7069 404.219ZM257.489 585.597C258.184 585.919 258.74 585.971 259.497 585.988C272.01 586.257 284.58 586.01 297.1 586.01L370.578 586.002C376.74 586.001 423.622 586.487 425.455 585.797C425.697 585.706 425.766 585.645 426 585.499L426 560.011C424.899 560.508 423.696 560.357 422.511 560.347C407.958 560.217 393.39 560.274 378.848 559.594L327.783 557.283C323.755 557.123 319.739 556.519 315.711 556.46C309.106 556.363 302.524 557.076 295.93 557.287C289.551 557.491 283.151 557.248 276.779 557.537C266.137 558.019 255.48 559.246 244.899 560.455C239.053 561.123 233.258 561.989 227.364 562.217C225.101 562.304 221.933 562.47 219.796 561.612C217.771 560.799 215.742 559.07 213.887 557.864C209.585 555.065 195.889 545.961 192.047 545.038C193.737 546.352 195.701 547.346 197.52 548.471Q202.345 551.511 207.21 554.485L242.656 576.175C247.564 579.181 253.017 581.967 257.489 585.597Z"/>
	<path d="M29.7069 404.219C29.7868 404.175 29.8681 404.134 29.9468 404.088C32.3667 402.675 34.3612 399.767 36.4276 397.792Q41.2081 393.208 46.3645 389.052C51.174 385.23 56.4654 382.186 62.0296 379.61C76.7017 372.817 90.2932 370.911 106.34 372.284C110.973 372.681 115.437 373.18 119.966 374.284Q124.644 375.412 129.244 376.825Q133.844 378.238 138.348 379.931Q142.853 381.624 147.245 383.589Q151.638 385.555 155.901 387.787C158.529 389.143 161.366 390.423 163.649 392.33C165.958 394.257 167.5 397.416 169.184 399.912L180.902 417.531L203.668 451.439L211.81 463.768C213.301 466 214.946 468.147 216.34 470.44C216.751 471.116 217.257 471.638 217.135 472.432C215.873 473.668 213.267 473.97 211.548 474.066C211.515 474.067 211.482 474.064 211.449 474.064C210.006 475.295 206.592 474.945 204.68 475.45C202.169 476.112 199.73 477.053 197.239 477.787C195.374 478.336 193.392 478.646 191.561 479.262C189.601 479.921 187.899 481.112 185.853 481.548C186.052 481.058 186.158 480.636 186.249 480.121C185.905 479.689 185.861 479.584 185.332 479.427C181.072 478.162 172.676 481.175 168.708 483.293C167.035 484.186 161.791 487.107 161.44 488.838C161.242 489.811 162.935 489.693 163.371 490.427C163.161 490.473 163.027 490.512 162.82 490.528C160.55 490.706 151.069 487.836 149.266 486.325C148.605 487.593 147.413 488.846 146.566 490.021C144.46 492.944 141.348 498.754 137.772 499.96C136.328 500.447 135.497 499.496 134.254 498.949C132.968 498.381 131.014 499.626 129.767 500.112C128.834 500.475 128.432 500.398 127.564 500.022C126.797 499.195 126.68 498.239 126.442 497.174C128.082 492.548 125.383 491.606 126.107 487.963C127.241 482.258 132.831 477.69 135.291 472.507C135.329 472.428 135.364 472.347 135.401 472.267C135.275 472.222 135.107 472.172 134.987 472.101C133.375 471.145 132.245 468.616 131.744 466.893C130.736 468.716 128.95 470.323 127.339 471.612C126.037 472.654 124.185 473.756 122.457 473.479C121.189 473.275 120.322 472.414 119.571 471.442C119.397 467.936 120.427 465.076 121.012 461.725L121.048 461.51C119.608 461.557 118.475 461.857 117.097 462.242C116.788 462.328 116.882 462.297 116.49 462.291C112.881 468.502 106.499 471.769 99.7199 473.536C97.2962 474.168 91.622 475.334 89.2639 474.257C87.9251 478.401 90.0925 485.835 84.3016 488.805C80.42 490.795 79.6372 488.981 77.8578 493.889C75.9109 499.259 74.885 513.763 77.2311 519.08C77.2925 519.219 77.3982 519.382 77.4732 519.507C80.7353 528.592 85.4401 538 94.6742 542.284Q95.3322 542.589 96.0044 542.861Q96.6767 543.133 97.3615 543.372Q98.0464 543.61 98.7422 543.815Q99.438 544.02 100.143 544.19Q100.848 544.359 101.561 544.494Q102.273 544.629 102.991 544.729Q103.71 544.829 104.432 544.893Q105.155 544.957 105.879 544.985Q106.604 545.013 107.329 545.006Q108.054 544.999 108.778 544.955Q109.502 544.912 110.223 544.833Q110.944 544.754 111.66 544.64Q112.376 544.525 113.086 544.376Q113.796 544.226 114.497 544.042Q115.198 543.857 115.89 543.639Q116.581 543.42 117.261 543.167C123.661 540.766 139.43 531.954 143.657 526.69C143.62 526.783 143.585 526.877 143.547 526.969C142.742 528.928 141.077 529.85 140.009 531.581C136.826 536.738 136.073 544.923 138.305 550.552C139.06 552.457 140.286 554.516 141.826 555.886C146.834 560.336 152.814 563.743 158.39 567.414L180.093 581.863C181.714 582.921 183.38 584.726 185.03 585.542C185.145 585.599 185.268 585.635 185.387 585.681C185.248 585.732 185.107 585.78 184.964 585.821C182.63 586.487 157.067 586.009 152.865 586.009L52.2077 586.006L17.9627 586C12.4873 585.999 6.7129 586.367 1.27041 585.947C0.75595 585.908 0.439471 585.749 0 585.499L0 486.488L0 435.988C1.52844 435.885 3.28575 433.407 4.31427 432.23C7.69824 428.361 25.3176 408.398 28.5382 406.73L29.7069 404.219ZM0 486.488L0 585.499C0.439471 585.749 0.75595 585.908 1.27041 585.947C6.7129 586.367 12.4873 585.999 17.9627 586L52.2077 586.006L152.865 586.009C157.067 586.009 182.63 586.487 184.964 585.821C185.107 585.78 185.248 585.732 185.387 585.681C185.268 585.635 185.145 585.599 185.03 585.542C183.38 584.726 181.714 582.921 180.093 581.863L158.39 567.414C152.814 563.743 146.834 560.336 141.826 555.886C140.286 554.516 139.06 552.457 138.305 550.552C136.073 544.923 136.826 536.738 140.009 531.581C141.077 529.85 142.742 528.928 143.547 526.969C143.585 526.877 143.62 526.783 143.657 526.69C139.43 531.954 123.661 540.766 117.261 543.167Q116.581 543.42 115.89 543.638Q115.198 543.857 114.497 544.042Q113.796 544.226 113.086 544.376Q112.376 544.525 111.66 544.64Q110.944 544.754 110.223 544.833Q109.502 544.912 108.778 544.955Q108.054 544.999 107.329 545.006Q106.604 545.013 105.879 544.985Q105.155 544.957 104.432 544.893Q103.71 544.829 102.991 544.729Q102.273 544.629 101.561 544.494Q100.848 544.359 100.143 544.19Q99.438 544.02 98.7422 543.815Q98.0464 543.611 97.3615 543.372Q96.6767 543.133 96.0044 542.861Q95.3322 542.589 94.6742 542.284C85.4401 538 80.7353 528.592 77.4732 519.507L77.409 519.824C77.3956 519.889 77.3788 519.952 77.3677 520.017C76.8847 522.824 81.7716 531.736 83.5439 534.091Q84.6439 535.576 85.9352 536.897Q87.2265 538.218 88.6853 539.352C90.1032 540.465 95.4446 543.181 95.9484 543.856L95.812 544.398C93.5463 546.146 83.5988 547.446 80.5703 547.382C73.7132 547.235 64.3402 544.912 59.5005 539.761C58.1627 538.337 57.4725 536.818 57.0684 534.928C56.1704 530.729 56.4876 526.093 56.4952 521.819Q56.512 511.441 56.8378 501.068C57.0672 501.305 57.2725 501.516 57.5407 501.71C60.1259 503.583 65.4551 507.36 68.6421 506.893C68.8985 506.112 69.0952 505.286 69.0813 504.458C69.0234 501.009 66.6127 499.2 64.5178 496.881C63.3273 495.563 62.181 494.183 60.8548 492.998L60.7897 493.289C61.2352 494.403 67.0319 501.507 67.9716 502.088C68.0737 502.151 68.1805 502.206 68.285 502.265C68.3435 503.215 68.5259 504.48 68.2417 505.39C68.0445 506.022 67.7865 506.127 67.2099 506.372C65.8448 506.081 64.7621 504.967 63.5852 504.24C62.1923 503.38 60.7031 502.684 59.3162 501.809C56.3366 499.929 53.4503 497.412 50.053 496.379C46.0335 495.158 41.7997 495.049 37.6826 494.332C34.115 493.711 30.613 492.697 27.0503 492.02C21.8768 491.037 3.28978 488.577 0 486.488ZM49.2364 433.539C49.0135 433.894 48.7624 434.242 48.4406 434.515C46.3855 436.257 43.9184 437.724 41.7591 439.362C37.3051 442.74 32.9683 446.298 28.5327 449.711C21.64 455.014 14.9207 460.759 7.74691 465.677C5.92577 465.93 2.96218 465.372 1.37609 464.465C1.97118 465.048 2.54611 465.593 3.35095 465.87C5.88465 466.741 8.71582 466.997 11.3189 467.658C15.8692 468.815 38.6441 475.678 41.2951 475.475C41.641 475.448 41.6583 475.419 41.9318 475.302C43.27 475.039 44.5107 474.321 45.2324 473.128C45.4766 472.724 45.6575 472.276 45.833 471.839C48.9557 470.613 49.8158 468.226 52.4628 467.02C54.5243 466.081 69.1032 466.671 71.3926 467.573C73.0581 468.23 75.3512 470.759 76.9254 470.904C78.3268 471.68 80.0282 471.532 81.5463 472.023C83.5385 472.666 85.3553 473.75 87.3829 474.321C87.982 474.49 88.4947 474.543 89.1196 474.499L89.5482 474.13L89.4048 473.687C86.256 472.45 82.7455 472.369 79.6289 471.167C68.0581 466.704 58.6374 456.605 53.8645 445.296C53.0496 443.365 52.7071 441.274 52.3188 439.227C50.8666 431.57 50.589 423.543 53.7076 416.199C56.5758 409.444 58.532 406.998 64.5681 403.091C65.8228 402.279 67.1102 401.246 68.4978 400.698C75.3431 397.996 81.9728 397.85 89.0863 399.254C91.2933 399.689 93.5341 400.127 95.5853 401.086C108.617 407.176 116.327 416.559 121.053 429.972C124.624 440.106 123.216 449.471 118.642 458.992C118.061 460.201 117.081 461.131 116.49 462.291C116.882 462.297 116.788 462.328 117.097 462.242C118.475 461.857 119.608 461.557 121.048 461.51C121.814 461.196 121.876 460.806 122.179 460.073C122.925 458.275 123.085 455.988 123.57 454.073C124.05 452.175 124.763 450.339 125.121 448.411C126.499 441 125.145 432.629 122.236 425.713C118.319 416.401 112.916 406.751 103.917 401.477C101.781 400.225 99.3907 399.347 97.0952 398.436C95.1363 397.659 93.2652 396.956 91.187 396.564C86.207 395.624 75.1104 395.223 70.4415 397.22C69.4904 397.627 68.7389 398.408 67.8089 398.864C66.6285 399.443 65.3728 399.814 64.2159 400.46C57.6192 404.139 53.2471 409.918 50.6879 416.911C48.6789 422.401 49.1328 427.799 49.2364 433.539Z"/>
	<path d="M63.521 461.114C63.5464 461.133 63.5755 461.149 63.5973 461.173C64.6012 462.275 67.7662 464.256 67.938 465.615L67.3792 465.744C67.2045 465.81 67.0313 465.88 66.8536 465.937C65.7878 466.281 63.9773 466.058 62.9939 465.567C63.0555 464.131 62.9674 462.451 63.521 461.114Z"/>
</svg>
