<?xml version="1.0" encoding="utf-8" ?>
<svg xmlns="http://www.w3.org/2000/svg" xmlns:xlink="http://www.w3.org/1999/xlink" width="350" height="367">
	<path d="M12.6255 68.632L13.0286 68.4154L13.2229 68.5728L12.8162 68.8412C12.5245 68.8973 12.3334 68.8653 12.0423 68.8265L12.6255 68.632Z"/>
	<path d="M153.589 160.625C154.135 160.355 155.129 160.569 155.736 160.616C154.994 160.723 154.311 160.896 153.589 160.625Z"/>
	<path d="M282.404 160.622C283.059 160.375 283.943 160.563 284.633 160.623C283.888 160.735 283.103 160.973 282.404 160.622Z"/>
	<path d="M261.391 52.6216C262.079 52.3611 263.032 52.5612 263.76 52.6214C262.983 52.7176 262.129 52.9363 261.391 52.6216Z"/>
	<path d="M51.356 44.6306C51.9714 44.4317 52.741 44.4812 53.3614 44.6308C52.7601 44.906 51.9774 44.7878 51.356 44.6306Z"/>
	<path d="M249.411 64.6273C250.036 64.3453 251.489 64.5058 252.169 64.625C251.503 64.893 250.087 64.8835 249.411 64.6273Z"/>
	<path d="M3.02798 124.076C3.73244 124.548 4.71002 124.517 5.53264 124.587L5.40621 124.845Q4.08128 124.776 2.76051 124.65L2.60804 124.378L3.02798 124.076Z"/>
	<path d="M143.538 58.7271C144.04 58.6845 144.271 58.6629 144.739 58.8937L144.89 59.7721C144.462 59.8069 144.227 59.8412 143.826 59.6528L143.538 58.7271Z"/>
	<path d="M188.861 224.451L189.194 224.336L189.773 224.737C189.514 225.259 188.583 224.678 187.945 224.917C187.357 224.866 186.586 224.897 186.082 224.57L188.861 224.451Z"/>
	<path fill="#FE443B" d="M0 249.338C1.24982 247.815 2.73271 246.53 4.06466 245.085L15.9686 232.209C17.3233 230.746 18.4467 229.082 19.8018 227.632C20.925 226.43 22.2125 225.386 23.3576 224.204C24.5551 222.967 25.6093 221.591 26.8336 220.379C40.0552 207.293 53.9573 198.23 72.8112 196.362C79.7689 195.673 87.2677 195.977 94.1664 197.173C97.9631 197.832 104.124 199.502 107.861 200.705C114.49 202.839 129.679 208.852 134.699 213.072C136.354 214.463 137.561 216.937 138.77 218.72C143.147 225.175 147.286 231.779 151.623 238.247L171.125 267.245C173.554 270.932 176.442 274.642 178.51 278.523C177.616 279.711 174.604 279.985 173.179 280.542C177.879 280.201 182.49 278.968 187.228 278.98C192.275 278.993 196.846 280.892 201.762 281.282C204.628 281.509 207.519 281.074 210.385 280.954C213.989 280.803 217.545 281.02 221.13 281.361C225.832 281.809 230.42 282.67 235.081 283.366C238.394 283.861 241.761 284.088 245.087 284.523C251.165 285.318 257.176 286.26 263.306 286.604C270.755 287.022 278.424 287.789 285.87 287.784C292.236 287.779 298.577 286.91 304.945 286.688Q327.465 285.863 350 285.992L350 300.374L350 301.634L350 350.799L350 366.562C349.789 366.692 349.733 366.742 349.515 366.823C347.875 367.434 315.121 367.001 310.711 367.002L241.361 367.008C229.54 367.008 217.69 367.181 205.873 366.992C205.187 366.981 204.654 366.955 204.006 366.696C202.709 367.236 146.616 367.344 144.752 366.724Q144.443 366.839 144.122 366.913C141.939 367.431 136.353 367.007 133.806 367.007L105.65 367.009L36.6116 367.005C24.9907 367.003 13.2863 367.296 1.67324 366.98C1.03055 366.963 0.556614 366.914 0 366.562L0 290.832L0 249.338ZM0 249.338L0 290.832L0 366.562C0.556614 366.914 1.03055 366.963 1.67324 366.98C13.2863 367.296 24.9907 367.003 36.6116 367.005L105.65 367.009L133.806 367.007C136.353 367.007 141.939 367.431 144.122 366.913Q144.443 366.839 144.752 366.724C142.327 366.008 138.208 362.204 135.85 360.628C131.067 357.432 126.102 354.498 121.423 351.149C117.021 347.998 113.286 344.838 112.398 339.162C111.852 335.672 112.746 330.853 114.678 327.877C115.597 326.461 116.887 325.259 117.88 323.871Q113.459 327.536 108.598 330.594Q103.737 333.651 98.5188 336.05C91.8032 339.191 84.5492 338.831 77.7143 336.357C74.3554 335.056 69.8476 329.964 67.9705 326.885C62.398 317.748 60.9595 307.669 63.4704 297.255C64.5351 295.661 64.6953 293.923 66.3535 292.741C66.7539 292.799 67.2178 292.794 67.6191 292.756C74.4303 292.122 71.6619 282.113 73.6371 280.739C73.9267 280.537 75.8313 280.502 76.3626 280.447C82.7949 279.781 88.8534 278.033 93.5497 273.406C94.4312 272.537 95.1365 271.468 95.9633 270.537C96.9623 270.11 97.9301 269.487 98.9987 269.871L99.4654 270.521C98.6576 272.642 97.7083 276.121 98.6745 278.311C98.9388 278.91 99.4245 279.387 100.063 279.566C101.266 279.903 102.815 279.25 103.832 278.606C105.463 277.574 106.806 276.04 108.284 274.804C109.18 276.401 110.005 277.633 111.356 278.867C108.786 282.384 103.048 289.372 103.785 293.851C103.912 294.622 104.243 295.324 104.642 295.991C104.264 297.666 103.72 299.343 104.43 301.006C104.886 301.404 105.114 301.632 105.776 301.596C107.03 301.528 108.084 300.478 109.273 300.462C112.522 300.418 112.701 303.693 116.632 298.543C118.754 295.763 120.229 292.615 123.019 290.398C125.063 291.378 132.182 293.867 134.167 293.624L134.269 293.34L132.71 292.654C132.636 292.086 133.057 291.677 133.4 291.235C136.117 287.74 144.819 284.892 149.072 284.392C150.268 284.251 151.766 284.059 152.879 284.608C153.242 285.249 152.772 285.959 153.127 286.261C155.029 285.619 156.733 284.433 158.644 283.881C162.174 282.863 165.879 281.897 169.459 281.093C170.638 280.828 172.063 280.88 173.179 280.542C174.604 279.985 177.616 279.711 178.51 278.523C176.442 274.642 173.554 270.932 171.125 267.245L151.623 238.247C147.286 231.779 143.147 225.175 138.77 218.72C137.561 216.937 136.354 214.463 134.699 213.072C129.679 208.852 114.49 202.839 107.861 200.705C104.124 199.502 97.9631 197.832 94.1664 197.173C87.2677 195.977 79.7689 195.673 72.8112 196.362C53.9573 198.23 40.0552 207.293 26.8336 220.379C25.6093 221.591 24.5551 222.967 23.3576 224.204C22.2125 225.386 20.925 226.43 19.8018 227.632C18.4467 229.082 17.3233 230.746 15.9686 232.209L4.06466 245.085C2.73271 246.53 1.24982 247.815 0 249.338ZM204.006 366.696C204.654 366.955 205.187 366.981 205.873 366.992C217.69 367.181 229.54 367.008 241.361 367.008L310.711 367.002C315.121 367.001 347.875 367.434 349.515 366.823C349.733 366.742 349.789 366.692 350 366.562L350 350.799C348.291 351.629 344.123 351.069 342.128 351.072C332.257 351.086 322.304 351.012 312.441 350.536C303.807 350.118 295.192 349.319 286.559 348.901C280.45 348.605 274.355 348.625 268.247 348.453C265.912 348.387 263.594 348.044 261.259 347.987C254.694 347.827 248.088 348.277 241.525 348.437C236.632 348.556 231.71 348.349 226.826 348.642Q222.249 348.882 217.691 349.365C210.989 350.113 185.629 353.82 180.575 351.944C178.946 351.34 177.502 349.931 176.019 349.009C170.3 345.452 164.463 341.388 158.417 338.452L158.341 338.584C161.444 341.144 166.256 343.716 169.799 345.921Q184.979 355.395 200.573 364.17C201.769 364.845 202.828 366.169 204.006 366.696ZM350 301.634L350 300.374C341.551 300.251 332.693 299.439 324.276 300.286L324.205 300.427L323.749 300.381C324.173 300.345 324.24 300.329 324.633 300.455C325.715 300.804 332.781 300.596 334.464 300.636C339.566 300.759 344.96 300.863 350 301.634ZM317.026 300.376C318.676 300.621 320.492 300.76 322.129 300.371Q320.862 300.158 319.577 300.159Q318.293 300.16 317.026 300.376Z"/>
	<path fill="#FE443B" fill-opacity="0.90980393" d="M317.026 300.376Q318.293 300.16 319.577 300.159Q320.862 300.158 322.129 300.371C320.492 300.76 318.676 300.621 317.026 300.376Z"/>
	<path fill="#FE443B" fill-opacity="0.6901961" d="M350 301.634C344.96 300.863 339.566 300.759 334.464 300.636C332.781 300.596 325.715 300.804 324.633 300.455C324.24 300.329 324.173 300.345 323.749 300.381L324.205 300.427L324.276 300.286C332.693 299.439 341.551 300.251 350 300.374L350 301.634Z"/>
	<path d="M0 249.338C1.24982 247.815 2.73271 246.53 4.06466 245.085L15.9686 232.209C17.3233 230.746 18.4467 229.082 19.8018 227.632C20.925 226.43 22.2125 225.386 23.3576 224.204C24.5551 222.967 25.6093 221.591 26.8336 220.379C40.0552 207.293 53.9573 198.23 72.8112 196.362C79.7689 195.673 87.2677 195.977 94.1664 197.173C97.9631 197.832 104.124 199.502 107.861 200.705C114.49 202.839 129.679 208.852 134.699 213.072C136.354 214.463 137.561 216.937 138.77 218.72C143.147 225.175 147.286 231.779 151.623 238.247L171.125 267.245C173.554 270.932 176.442 274.642 178.51 278.523C177.616 279.711 174.604 279.985 173.179 280.542C172.063 280.88 170.638 280.828 169.459 281.093C165.879 281.897 162.174 282.863 158.644 283.881C156.733 284.433 155.029 285.619 153.127 286.261C152.772 285.959 153.242 285.249 152.879 284.608C151.766 284.059 150.268 284.251 149.072 284.392C144.819 284.892 136.117 287.74 133.4 291.235C133.057 291.677 132.636 292.086 132.71 292.654L134.269 293.34L134.167 293.624C132.182 293.867 125.063 291.378 123.019 290.398C120.229 292.615 118.754 295.763 116.632 298.543C112.701 303.693 112.522 300.418 109.273 300.462C108.084 300.478 107.03 301.528 105.776 301.596C105.114 301.632 104.886 301.404 104.43 301.006C103.72 299.343 104.264 297.666 104.642 295.991C104.243 295.324 103.912 294.622 103.785 293.851C103.048 289.372 108.786 282.384 111.356 278.867C110.005 277.633 109.18 276.401 108.284 274.804C106.806 276.04 105.463 277.574 103.832 278.606C102.815 279.25 101.266 279.903 100.063 279.566C99.4245 279.387 98.9388 278.91 98.6745 278.311C97.7083 276.121 98.6576 272.642 99.4654 270.521L98.9987 269.871C97.9301 269.487 96.9623 270.11 95.9633 270.537C95.1365 271.468 94.4312 272.537 93.5497 273.406C88.8534 278.033 82.7949 279.781 76.3626 280.447C75.8313 280.502 73.9267 280.537 73.6371 280.739C71.6619 282.113 74.4303 292.122 67.6191 292.756C67.2178 292.794 66.7539 292.799 66.3535 292.741C64.6953 293.923 64.5351 295.661 63.4704 297.255C60.9595 307.669 62.398 317.748 67.9705 326.885C69.8476 329.964 74.3554 335.056 77.7143 336.357C84.5492 338.831 91.8032 339.191 98.5188 336.05Q103.737 333.651 108.598 330.594Q113.459 327.536 117.88 323.871C116.887 325.259 115.597 326.461 114.678 327.877C112.746 330.853 111.852 335.672 112.398 339.162C113.286 344.838 117.021 347.998 121.423 351.149C126.102 354.498 131.067 357.432 135.85 360.628C138.208 362.204 142.327 366.008 144.752 366.724Q144.443 366.839 144.122 366.913C141.939 367.431 136.353 367.007 133.806 367.007L105.65 367.009L36.6116 367.005C24.9907 367.003 13.2863 367.296 1.67324 366.98C1.03055 366.963 0.556614 366.914 0 366.562L0 290.832L0 249.338ZM0 290.832L0 366.562C0.556614 366.914 1.03055 366.963 1.67324 366.98C13.2863 367.296 24.9907 367.003 36.6116 367.005L105.65 367.009L133.806 367.007C136.353 367.007 141.939 367.431 144.122 366.913Q144.443 366.839 144.752 366.724C142.327 366.008 138.208 362.204 135.85 360.628C131.067 357.432 126.102 354.498 121.423 351.149C117.021 347.998 113.286 344.838 112.398 339.162C111.852 335.672 112.746 330.853 114.678 327.877C115.597 326.461 116.887 325.259 117.88 323.871Q113.459 327.536 108.598 330.594Q103.737 333.651 98.5188 336.05C91.8032 339.191 84.5492 338.831 77.7143 336.357C78.1584 336.851 78.6083 337.276 78.782 337.937C77.7027 338.94 74.9818 339.148 73.5138 339.431C65.4351 340.992 57.2043 340.202 50.2619 335.419C48.6303 334.295 47.504 332.757 46.934 330.857C45.785 327.027 46.2905 310.774 46.6006 306.092C46.6704 305.037 47.5145 303.133 47.3653 302.287C46.0665 300.7 43.0021 299.14 41.0411 298.505C37.639 297.404 33.8742 297.364 30.3502 296.78C26.9221 296.213 23.5954 295.142 20.1744 294.541C13.532 293.374 6.43752 292.826 0 290.832ZM40.4191 247.152C36.1719 249.935 32.3429 253.446 28.3645 256.595C23.4522 260.483 18.3812 264.256 13.3711 268.021C11.3549 269.536 8.71508 272.029 6.52574 273.12C5.29935 273.731 3.44026 272.758 2.09668 273.094C3.5349 274.051 6.74659 274.028 8.53243 274.484C10.7694 275.056 12.9068 276.014 15.1222 276.672C17.5641 277.396 20.1234 277.67 22.5933 278.294C26.6716 279.323 30.3568 280.721 34.5537 281.354C36.2924 280.292 37.2818 279.364 38.4323 277.664C39.0599 277.436 39.5873 277.252 40.0606 276.765C40.9077 275.894 42.4475 274.461 43.5578 273.995C45.7007 273.097 49.4146 274.182 51.7351 274.194C52.8446 274.2 53.9589 273.927 55.0627 273.96C55.5544 273.975 56.0422 274.137 56.4995 274.306C57.7492 274.769 59.0336 274.988 60.2047 275.664C61.4497 276.384 62.5176 277.533 63.8494 278.087L64.137 277.823C62.272 275.561 59.4598 274.967 57.2589 273.255C56.0634 272.324 54.8138 270.49 53.3895 270.061L53.3015 270.453C53.6588 271.443 55.024 271.872 55.73 272.687L55.671 273.166C54.6605 273.679 53.0012 273.432 51.8539 273.442C51.8998 271.801 52.0598 270.59 52.6822 269.054C49.6741 266.079 47.1679 262.943 45.2098 259.173C41.6741 252.366 41.1581 240.434 43.5288 233.139C45.4119 227.345 49.8207 222.868 55.1744 220.186C58.7464 218.397 63.3487 217.64 67.3464 217.852C68.6764 217.922 69.9872 218.209 71.3163 218.308C72.8314 218.421 74.6003 218.212 76.0387 218.729C78.0607 219.455 82.621 222.3 84.6015 223.578C92.1337 228.44 98.4501 237.115 100.298 245.907C102.108 254.522 100.812 263.144 95.9633 270.537C96.9623 270.11 97.9301 269.487 98.9987 269.871L99.4654 270.521C99.7379 269.726 100.208 269.025 100.456 268.23C101.284 265.576 102.714 259.993 102.959 257.373C103.968 246.57 98.5642 233.577 91.4538 225.601C89.5743 223.493 86.7453 222.317 84.9956 220.155C84.9447 220.092 84.8954 220.028 84.8453 219.964C83.3188 219.538 81.7436 219.251 80.2584 218.686C78.5768 218.047 76.8229 217.034 75.096 216.592C72.7429 215.989 69.847 215.815 67.4191 215.807C60.3513 215.785 52.6582 218.845 47.6448 223.884C44.4952 227.051 41.0877 233.291 40.4784 237.785C40.0763 240.751 40.4166 244.151 40.4191 247.152ZM108.63 264.593C107.167 264.756 102.802 265.248 101.886 266.358C101.829 266.428 101.777 266.502 101.722 266.575L102.11 267.081C105.143 266.522 107.9 265.408 111.026 265.113C118.498 264.405 128.945 268.733 135.842 271.651C137.311 272.4 140.14 274.261 141.786 274.125C141.207 272.924 129.568 267.911 127.42 267.161C121.629 265.139 114.804 263.607 108.63 264.593ZM64.5888 293.562C64.0846 294.718 63.5192 295.811 63.4795 297.094C63.4778 297.148 63.4734 297.201 63.4704 297.255C64.5351 295.661 64.6953 293.923 66.3535 292.741C63.8407 291.993 54.4243 291.914 52.0602 292.53C52.4478 292.906 62.8716 293.327 64.5888 293.562Z"/>
	<path d="M98.95 348.637C100.097 348.504 101.101 348.495 102.248 348.626C101.106 348.81 100.096 348.749 98.95 348.637Z"/>
</svg>
