<?xml version="1.0" encoding="utf-8" ?>
<svg xmlns="http://www.w3.org/2000/svg" xmlns:xlink="http://www.w3.org/1999/xlink" width="350" height="367">
	<path fill="#FE443C" d="M0 244.385C2.90271 241.449 5.55207 238.275 8.32009 235.214Q15.7405 227.019 23.3904 219.038C27.6208 214.613 31.7817 210.153 36.5218 206.251C48.9617 196.012 64.2114 190.782 80.2496 190.704C95.9619 190.627 111.236 195.577 125.216 202.474C128.072 203.883 131.077 205.234 133.712 207.024C134.726 207.712 135.517 208.854 136.22 209.843C138.92 213.638 141.378 217.62 143.975 221.487L162.641 249.367Q168.013 257.279 173.285 265.257C175.08 267.96 177.523 270.952 178.685 273.963C177.666 274.102 176.662 274.23 175.668 274.505C177.81 274.862 180.473 274.337 182.649 274.173Q186.251 273.883 189.863 273.988C194.081 274.124 197.859 276.008 201.941 276.332C204.189 276.511 206.5 276.212 208.746 276.082C211.769 275.907 214.904 275.841 217.93 276.045C225.29 276.54 232.528 278.067 239.835 278.979C254.608 280.822 269.596 282.307 284.474 282.95C289.108 283.151 293.631 282.529 298.236 282.142C302.874 281.753 307.544 281.534 312.193 281.328C324.805 280.77 337.39 281.163 350 280.871L350 346.02L350 366.562C349.789 366.686 349.72 366.741 349.507 366.823C348.066 367.38 316.201 367.002 311.399 367.003L246.62 367.008C235.526 367.008 224.41 367.15 213.319 366.994C212.568 366.984 211.978 366.982 211.277 366.673C210.799 366.882 210.421 366.953 209.905 366.974C204.296 367.203 154.394 367.32 152.734 366.718Q152.431 366.835 152.115 366.911C150.161 367.393 144.041 367.007 141.628 367.007L112.207 367.009L38.8234 367.005C26.4667 367.003 14.0222 367.315 1.67382 366.98C1.03104 366.963 0.55684 366.913 0 366.562L0 285.843L0 244.385ZM0 244.385L0 285.843L0 366.562C0.55684 366.913 1.03104 366.963 1.67382 366.98C14.0222 367.315 26.4667 367.003 38.8234 367.005L112.207 367.009L141.628 367.007C144.041 367.007 150.161 367.393 152.115 366.911Q152.431 366.835 152.734 366.718C151.358 366.126 149.829 364.849 148.56 364.004L137.454 356.52C131.372 352.416 124.879 348.627 119.008 344.259C115.838 341.9 113.331 338.557 112.768 334.57C111.926 328.599 113.879 323.929 117.331 319.266C115.807 320.346 114.421 321.615 112.875 322.681C107.423 326.444 97.1525 332.395 90.7701 333.084C88.3421 333.347 85.5484 333.037 83.141 332.617C82.1499 332.444 80.9888 332.068 79.9936 332.048C79.6979 332.042 79.4969 332.153 79.2369 332.274C74.1335 330.532 69.2619 326.096 66.7142 321.437C60.9551 310.903 61.1674 299.255 64.4718 288.026C60.2834 287.871 56.0905 287.861 51.9011 287.731L51.725 287.492C54.0811 286.13 66.3694 288.444 69.912 286.251C71.1428 285.488 71.9454 284.091 72.2965 282.716C71.9074 281.157 70.8314 281.99 69.8795 281.258C70.2818 280.875 71.5518 281.26 72.1708 281.173C72.6616 281.103 72.7136 281 73.0031 280.635C73.0283 278.784 72.4535 276.864 71.8786 275.118C71.3561 274.863 70.9491 274.601 70.4994 274.232C72.2069 273.909 74.1861 274.768 75.981 274.672C84.3083 274.23 89.6994 271.825 95.346 265.671C96.4967 265.095 97.5288 264.371 98.832 264.739C99.3573 265.36 99.365 265.784 99.5121 266.549C98.8699 268.38 97.9712 270.49 98.868 272.375C99.2162 273.108 99.8384 273.725 100.626 273.961C101.561 274.24 102.526 273.977 103.337 273.48C104.973 272.478 107.506 268.446 108.868 268.171C108.91 268.655 108.867 269.011 108.779 269.483C109.235 270.308 109.692 271.301 110.315 272.008C110.547 272.272 111.591 272.963 111.676 273.175C111.699 273.232 111.614 273.624 111.592 273.707C110.368 278.372 101.308 284.644 104.232 290.031C104.339 290.228 104.515 290.266 104.709 290.367C105.249 290.188 105.584 290.009 106.043 289.671C106.194 291.457 102.595 293.754 105.035 296.114C106.133 296.498 107.105 296.216 108.119 295.732C108.929 295.346 109.552 294.699 110.38 294.349C111.337 294.881 111.246 296.597 112.632 296.392C115.345 295.99 121.093 284.877 123.653 284.095C123.577 284.658 123.294 285.636 123.521 286.136C123.88 286.109 123.849 286.093 124.123 285.905C124.445 285.685 124.776 285.534 125.175 285.617C126.315 285.855 126.978 286.555 128.239 286.665C128.555 286.887 128.983 287.085 129.353 287.188C130.003 287.369 130.77 287.236 131.355 286.918C131.98 286.577 132.639 285.842 132.781 285.131C132.887 284.6 132.798 284.548 132.497 284.144C132.273 284.113 132.128 284.081 131.893 284.103C131.089 284.177 130.878 285.038 130.354 285.508C129.808 285.999 129.421 285.959 128.743 285.964C129.7 284.897 130.631 283.828 131.508 282.693L134.504 284.484C139.244 281.78 144.16 278.915 149.803 279.09C151.755 279.151 153.88 279.762 155.803 279.431C157.879 279.074 159.361 277.526 161.275 277.098C165.499 276.154 171.407 274.538 175.668 274.505C176.662 274.23 177.666 274.102 178.685 273.963C177.523 270.952 175.08 267.96 173.285 265.257Q168.013 257.279 162.641 249.367L143.975 221.487C141.378 217.62 138.92 213.638 136.22 209.843C135.517 208.854 134.726 207.712 133.712 207.024C131.077 205.234 128.072 203.883 125.216 202.474C111.236 195.577 95.9619 190.627 80.2496 190.704C64.2114 190.782 48.9617 196.012 36.5218 206.251C31.7817 210.153 27.6208 214.613 23.3904 219.038Q15.7405 227.019 8.32009 235.214C5.55207 238.275 2.90271 241.449 0 244.385ZM211.277 366.673C211.978 366.982 212.568 366.984 213.319 366.994C224.41 367.15 235.526 367.008 246.62 367.008L311.399 367.003C316.201 367.002 348.066 367.38 349.507 366.823C349.72 366.741 349.789 366.686 350 366.562L350 346.02C343.67 345.742 337.337 345.843 331.003 345.78C325.52 345.725 320.039 345.446 314.558 345.281C310.754 345.166 306.935 345.2 303.136 345.01L274.356 343.446C268.973 343.117 262.749 342.394 257.459 342.57C253.514 342.701 249.576 343.023 245.631 343.151C236.124 343.46 226.735 343.617 217.25 344.467C211.182 345.012 205.119 345.539 199.063 346.212C194.648 346.703 188.156 347.691 183.802 347.489C177.916 347.216 160.942 333.409 158.136 333.381C160.276 335.469 164.722 337.613 167.407 339.282C172.923 342.711 210.245 365.269 211.277 366.673Z"/>
	<path fill="#FEFEFE" d="M0 244.385C2.90271 241.449 5.55207 238.275 8.32009 235.214Q15.7405 227.019 23.3904 219.038C27.6208 214.613 31.7817 210.153 36.5218 206.251C48.9617 196.012 64.2114 190.782 80.2496 190.704C95.9619 190.627 111.236 195.577 125.216 202.474C128.072 203.883 131.077 205.234 133.712 207.024C134.726 207.712 135.517 208.854 136.22 209.843C138.92 213.638 141.378 217.62 143.975 221.487L162.641 249.367Q168.013 257.279 173.285 265.257C175.08 267.96 177.523 270.952 178.685 273.963C177.666 274.102 176.662 274.23 175.668 274.505C171.407 274.538 165.499 276.154 161.275 277.098C159.361 277.526 157.879 279.074 155.803 279.431C153.88 279.762 151.755 279.151 149.803 279.09C144.16 278.915 139.244 281.78 134.504 284.484L131.508 282.693C130.631 283.828 129.7 284.897 128.743 285.964C129.421 285.959 129.808 285.999 130.354 285.508C130.878 285.038 131.089 284.177 131.893 284.103C132.128 284.081 132.273 284.113 132.497 284.144C132.798 284.548 132.887 284.6 132.781 285.131C132.639 285.842 131.98 286.577 131.355 286.918C130.77 287.236 130.003 287.369 129.353 287.188C128.983 287.085 128.555 286.887 128.239 286.665C126.978 286.555 126.315 285.855 125.175 285.617C124.776 285.534 124.445 285.685 124.123 285.905C123.849 286.093 123.88 286.109 123.521 286.136C123.294 285.636 123.577 284.658 123.653 284.095C121.093 284.877 115.345 295.99 112.632 296.392C111.246 296.597 111.337 294.881 110.38 294.349C109.552 294.699 108.929 295.346 108.119 295.732C107.105 296.216 106.133 296.498 105.035 296.114C102.595 293.754 106.194 291.457 106.043 289.671C105.584 290.009 105.249 290.188 104.709 290.367C104.515 290.266 104.339 290.228 104.232 290.031C101.308 284.644 110.368 278.372 111.592 273.707C111.614 273.624 111.699 273.232 111.676 273.175C111.591 272.963 110.547 272.272 110.315 272.008C109.692 271.301 109.235 270.308 108.779 269.483C108.867 269.011 108.91 268.655 108.868 268.171C107.506 268.446 104.973 272.478 103.337 273.48C102.526 273.977 101.561 274.24 100.626 273.961C99.8384 273.725 99.2162 273.108 98.868 272.375C97.9712 270.49 98.8699 268.38 99.5121 266.549C99.365 265.784 99.3573 265.36 98.832 264.739C97.5288 264.371 96.4967 265.095 95.346 265.671C89.6994 271.825 84.3083 274.23 75.981 274.672C74.1861 274.768 72.2069 273.909 70.4994 274.232C70.9491 274.601 71.3561 274.863 71.8786 275.118C72.4535 276.864 73.0283 278.784 73.0031 280.635C72.7136 281 72.6616 281.103 72.1708 281.173C71.5518 281.26 70.2818 280.875 69.8795 281.258C70.8314 281.99 71.9074 281.157 72.2965 282.716C71.9454 284.091 71.1428 285.488 69.912 286.251C66.3694 288.444 54.0811 286.13 51.725 287.492L51.9011 287.731C56.0905 287.861 60.2834 287.871 64.4718 288.026C61.1674 299.255 60.9551 310.903 66.7142 321.437C69.2619 326.096 74.1335 330.532 79.2369 332.274C79.4969 332.153 79.6979 332.042 79.9936 332.048C80.9888 332.068 82.1499 332.444 83.141 332.617C85.5484 333.037 88.3421 333.347 90.7701 333.084C97.1525 332.395 107.423 326.444 112.875 322.681C114.421 321.615 115.807 320.346 117.331 319.266C113.879 323.929 111.926 328.599 112.768 334.57C113.331 338.557 115.838 341.9 119.008 344.259C124.879 348.627 131.372 352.416 137.454 356.52L148.56 364.004C149.829 364.849 151.358 366.126 152.734 366.718Q152.431 366.835 152.115 366.911C150.161 367.393 144.041 367.007 141.628 367.007L112.207 367.009L38.8234 367.005C26.4667 367.003 14.0222 367.315 1.67382 366.98C1.03104 366.963 0.55684 366.913 0 366.562L0 285.843L0 244.385ZM0 285.843L0 366.562C0.55684 366.913 1.03104 366.963 1.67382 366.98C14.0222 367.315 26.4667 367.003 38.8234 367.005L112.207 367.009L141.628 367.007C144.041 367.007 150.161 367.393 152.115 366.911Q152.431 366.835 152.734 366.718C151.358 366.126 149.829 364.849 148.56 364.004L137.454 356.52C131.372 352.416 124.879 348.627 119.008 344.259C115.838 341.9 113.331 338.557 112.768 334.57C111.926 328.599 113.879 323.929 117.331 319.266C115.807 320.346 114.421 321.615 112.875 322.681C107.423 326.444 97.1525 332.395 90.7701 333.084C88.3421 333.347 85.5484 333.037 83.141 332.617C82.1499 332.444 80.9888 332.068 79.9936 332.048C79.6979 332.042 79.4969 332.153 79.2369 332.274C79.0907 332.444 79.0628 332.494 78.8506 332.639C74.7141 335.457 64.8351 335.626 60.1032 334.492C56.6216 333.658 50.1567 331.294 48.2869 328.189C44.5517 321.987 46.0551 311.724 46.2283 304.785C46.2844 302.536 45.8994 299.773 46.4228 297.621C47.388 297.344 53.3319 301.304 54.9644 301.77C55.7261 301.988 56.1743 302.046 56.8521 301.656C56.9789 301.344 57.0517 301.094 57.0629 300.753C57.1841 297.062 52.3124 292.861 49.9426 290.286C51.3943 293.701 55.2659 295.917 56.1735 299.684C56.3314 300.339 56.255 300.721 55.9269 301.296C55.072 301.573 54.1464 301.073 53.3881 300.683C49.5623 298.717 45.9201 295.264 42.0184 293.678C38.6664 292.314 34.2321 292.079 30.6498 291.398C20.4487 289.46 10.2636 287.427 0 285.843ZM40.4554 241.701L18.093 259.104C15.0023 261.529 10.0033 266.019 6.91275 267.771C6.35119 268.09 5.67207 268.107 5.04009 268.123L4.72338 268.128L4.47332 268.624L4.48471 268.393C4.77972 268.655 31.558 275.657 34.4812 276.538C37.8206 274.155 40.6575 270.769 43.8666 268.143C48.6971 268.682 53.5609 268.525 58.3832 269.005C55.43 266.492 54.0885 269.259 52.0711 267.719C51.893 266.893 51.9436 266.218 52.0378 265.393C52.4771 264.74 52.5105 265.19 53.1232 264.904C47.8209 258.45 43.8392 252.354 42.3754 243.982C41.0484 236.393 42.3385 228.59 46.8791 222.239Q47.2154 221.773 47.5741 221.323Q47.9328 220.874 48.3131 220.442Q48.6934 220.011 49.0943 219.599Q49.4953 219.186 49.9159 218.794Q50.3365 218.402 50.7758 218.031Q51.2151 217.66 51.6721 217.311Q52.129 216.961 52.6025 216.635Q53.0759 216.309 53.5648 216.006Q54.0537 215.703 54.5568 215.424Q55.0599 215.146 55.5761 214.892Q56.0922 214.639 56.6201 214.411Q57.148 214.183 57.6865 213.981Q58.225 213.779 58.7726 213.603Q59.3203 213.428 59.8759 213.28Q60.4315 213.131 60.9938 213.01Q61.556 212.889 62.1234 212.796C70.3157 211.509 78.6338 213.822 85.2762 218.693C93.409 224.658 99.2483 233.752 100.743 243.777C101.925 251.701 100.09 259.205 95.346 265.671C96.4967 265.095 97.5288 264.371 98.832 264.739C99.3573 265.36 99.365 265.784 99.5121 266.549C99.9811 262.424 101.712 258.779 102.555 254.788C102.985 252.753 103.028 250.583 103.028 248.507C103.025 238.494 98.1311 226.942 91.0082 219.859C84.9555 213.841 75.9164 210.299 67.3523 210.362C60.4112 210.413 52.3057 213.392 47.4052 218.411C40.7534 225.223 40.3815 232.852 40.4554 241.701Z"/>
</svg>
